<svg width="30" height="30" viewBox="0 0 30 30" fill="none" xmlns="http://www.w3.org/2000/svg">
<path d="M20.8987 24.69L20.0987 18.285C19.9854 17.3778 19.5445 16.5432 18.8589 15.9383C18.1734 15.3333 17.2905 14.9996 16.3762 15H13.6212C12.7074 15.0003 11.8251 15.3342 11.1401 15.9391C10.4551 16.544 10.0146 17.3782 9.90123 18.285L9.09998 24.69C9.05601 25.0419 9.0874 25.3991 9.19208 25.7379C9.29676 26.0768 9.47232 26.3894 9.70712 26.6552C9.94191 26.921 10.2306 27.1338 10.5539 27.2794C10.8772 27.4251 11.2279 27.5003 11.5825 27.5H18.4175C18.772 27.5001 19.1225 27.4248 19.4457 27.279C19.7689 27.1333 20.0574 26.9205 20.292 26.6547C20.5267 26.389 20.7021 26.0764 20.8067 25.7376C20.9113 25.3989 20.9427 25.0418 20.8987 24.69V24.69Z" stroke="#003D84" stroke-width="2" stroke-linecap="round" stroke-linejoin="round"/>
<path d="M15 10C17.0711 10 18.75 8.32107 18.75 6.25C18.75 4.17893 17.0711 2.5 15 2.5C12.9289 2.5 11.25 4.17893 11.25 6.25C11.25 8.32107 12.9289 10 15 10Z" stroke="#003D84" stroke-width="2"/>
<path d="M5 13.75C6.38071 13.75 7.5 12.6307 7.5 11.25C7.5 9.86929 6.38071 8.75 5 8.75C3.61929 8.75 2.5 9.86929 2.5 11.25C2.5 12.6307 3.61929 13.75 5 13.75Z" stroke="#003D84" stroke-width="2"/>
<path d="M25 13.75C26.3807 13.75 27.5 12.6307 27.5 11.25C27.5 9.86929 26.3807 8.75 25 8.75C23.6193 8.75 22.5 9.86929 22.5 11.25C22.5 12.6307 23.6193 13.75 25 13.75Z" stroke="#003D84" stroke-width="2"/>
<path d="M4.99999 17.5H4.61749C4.02569 17.4999 3.45305 17.7098 3.00146 18.0923C2.54986 18.4747 2.24859 19.005 2.15124 19.5887L1.73499 22.0887C1.67525 22.4469 1.69426 22.8138 1.7907 23.1639C1.88713 23.514 2.05867 23.8389 2.29339 24.116C2.52811 24.393 2.82038 24.6156 3.14985 24.7683C3.47933 24.921 3.83811 25 4.20124 25H8.74999" stroke="#003D84" stroke-width="2" stroke-linecap="round" stroke-linejoin="round"/>
<path d="M25 17.5H25.3825C25.9743 17.4999 26.5469 17.7098 26.9985 18.0923C27.4501 18.4747 27.7514 19.005 27.8487 19.5887L28.265 22.0887C28.3247 22.4469 28.3057 22.8138 28.2093 23.1639C28.1129 23.514 27.9413 23.8389 27.7066 24.116C27.4719 24.393 27.1796 24.6156 26.8501 24.7683C26.5207 24.921 26.1619 25 25.7987 25H21.25" stroke="#003D84" stroke-width="2" stroke-linecap="round" stroke-linejoin="round"/>
</svg>