<svg width="243" height="40" viewBox="0 0 243 40" fill="none" xmlns="http://www.w3.org/2000/svg">
<path d="M23.256 27.412C23.256 28.852 22.884 30.064 22.14 31.048C21.396 32.008 20.388 32.74 19.116 33.244C17.868 33.748 16.5 34 15.012 34H2.664V8.44H16.344C17.544 8.44 18.576 8.764 19.44 9.412C20.328 10.036 21 10.852 21.456 11.86C21.936 12.844 22.176 13.876 22.176 14.956C22.176 16.18 21.864 17.344 21.24 18.448C20.616 19.552 19.704 20.368 18.504 20.896C19.968 21.328 21.12 22.108 21.96 23.236C22.824 24.364 23.256 25.756 23.256 27.412ZM18.252 26.476C18.252 25.828 18.12 25.252 17.856 24.748C17.592 24.22 17.232 23.812 16.776 23.524C16.344 23.212 15.84 23.056 15.264 23.056H7.632V29.788H15.012C15.612 29.788 16.152 29.644 16.632 29.356C17.136 29.044 17.532 28.636 17.82 28.132C18.108 27.628 18.252 27.076 18.252 26.476ZM7.632 12.688V19.132H14.256C14.808 19.132 15.312 19 15.768 18.736C16.224 18.472 16.584 18.1 16.848 17.62C17.136 17.14 17.28 16.564 17.28 15.892C17.28 15.244 17.148 14.68 16.884 14.2C16.644 13.72 16.308 13.348 15.876 13.084C15.468 12.82 15 12.688 14.472 12.688H7.632ZM35.4128 34.36C33.9008 34.36 32.5328 34.108 31.3088 33.604C30.0848 33.076 29.0408 32.368 28.1768 31.48C27.3128 30.568 26.6408 29.536 26.1608 28.384C25.7048 27.208 25.4768 25.972 25.4768 24.676C25.4768 22.876 25.8728 21.232 26.6648 19.744C27.4808 18.256 28.6328 17.068 30.1208 16.18C31.6328 15.268 33.4088 14.812 35.4488 14.812C37.5128 14.812 39.2768 15.268 40.7408 16.18C42.2048 17.068 43.3208 18.256 44.0888 19.744C44.8808 21.208 45.2768 22.792 45.2768 24.496C45.2768 24.784 45.2648 25.084 45.2408 25.396C45.2168 25.684 45.1928 25.924 45.1688 26.116H30.5888C30.6848 27.076 30.9608 27.916 31.4168 28.636C31.8968 29.356 32.4968 29.908 33.2168 30.292C33.9608 30.652 34.7528 30.832 35.5928 30.832C36.5528 30.832 37.4528 30.604 38.2928 30.148C39.1568 29.668 39.7448 29.044 40.0568 28.276L44.1968 29.428C43.7408 30.388 43.0808 31.24 42.2168 31.984C41.3768 32.728 40.3808 33.316 39.2288 33.748C38.0768 34.156 36.8048 34.36 35.4128 34.36ZM30.4808 23.056H40.3448C40.2488 22.096 39.9728 21.268 39.5168 20.572C39.0848 19.852 38.5088 19.3 37.7888 18.916C37.0688 18.508 36.2648 18.304 35.3768 18.304C34.5128 18.304 33.7208 18.508 33.0008 18.916C32.3048 19.3 31.7288 19.852 31.2728 20.572C30.8408 21.268 30.5768 22.096 30.4808 23.056ZM65.7475 34H60.9235V23.416C60.9235 21.904 60.6595 20.8 60.1315 20.104C59.6035 19.408 58.8715 19.06 57.9355 19.06C57.2875 19.06 56.6275 19.228 55.9555 19.564C55.3075 19.9 54.7195 20.368 54.1915 20.968C53.6635 21.544 53.2795 22.216 53.0395 22.984V34H48.2155V15.136H52.5715V18.628C53.0515 17.812 53.6635 17.128 54.4075 16.576C55.1515 16 56.0035 15.568 56.9635 15.28C57.9475 14.968 58.9795 14.812 60.0595 14.812C61.2355 14.812 62.1955 15.028 62.9395 15.46C63.7075 15.868 64.2835 16.432 64.6675 17.152C65.0755 17.848 65.3515 18.64 65.4955 19.528C65.6635 20.416 65.7475 21.316 65.7475 22.228V34ZM78.6901 34.36C77.1781 34.36 75.8101 34.108 74.5861 33.604C73.3621 33.076 72.3181 32.368 71.4541 31.48C70.5901 30.568 69.9181 29.536 69.4381 28.384C68.9821 27.208 68.7541 25.972 68.7541 24.676C68.7541 22.876 69.1501 21.232 69.9421 19.744C70.7581 18.256 71.9101 17.068 73.3981 16.18C74.9101 15.268 76.6861 14.812 78.7261 14.812C80.7901 14.812 82.5541 15.268 84.0181 16.18C85.4821 17.068 86.5981 18.256 87.3661 19.744C88.1581 21.208 88.5541 22.792 88.5541 24.496C88.5541 24.784 88.5421 25.084 88.5181 25.396C88.4941 25.684 88.4701 25.924 88.4461 26.116H73.8661C73.9621 27.076 74.2381 27.916 74.6941 28.636C75.1741 29.356 75.7741 29.908 76.4941 30.292C77.2381 30.652 78.0301 30.832 78.8701 30.832C79.8301 30.832 80.7301 30.604 81.5701 30.148C82.4341 29.668 83.0221 29.044 83.3341 28.276L87.4741 29.428C87.0181 30.388 86.3581 31.24 85.4941 31.984C84.6541 32.728 83.6581 33.316 82.5061 33.748C81.3541 34.156 80.0821 34.36 78.6901 34.36ZM73.7581 23.056H83.6221C83.5261 22.096 83.2501 21.268 82.7941 20.572C82.3621 19.852 81.7861 19.3 81.0661 18.916C80.3461 18.508 79.5421 18.304 78.6541 18.304C77.7901 18.304 76.9981 18.508 76.2781 18.916C75.5821 19.3 75.0061 19.852 74.5501 20.572C74.1181 21.268 73.8541 22.096 73.7581 23.056Z" fill="#003D84"/>
<path d="M127.196 34V15.136H132.02V34H127.196ZM127.196 12.508V7.72H132.02V12.508H127.196ZM145.156 34.36C143.62 34.36 142.24 34.108 141.016 33.604C139.792 33.076 138.748 32.356 137.884 31.444C137.02 30.508 136.348 29.452 135.868 28.276C135.412 27.1 135.184 25.864 135.184 24.568C135.184 22.792 135.58 21.172 136.372 19.708C137.188 18.22 138.34 17.032 139.828 16.144C141.316 15.256 143.08 14.812 145.12 14.812C147.16 14.812 148.912 15.256 150.376 16.144C151.84 17.032 152.932 18.196 153.652 19.636L148.936 21.076C148.528 20.38 147.988 19.852 147.316 19.492C146.644 19.108 145.9 18.916 145.084 18.916C144.172 18.916 143.332 19.156 142.564 19.636C141.82 20.092 141.232 20.752 140.8 21.616C140.368 22.456 140.152 23.44 140.152 24.568C140.152 25.672 140.368 26.656 140.8 27.52C141.256 28.36 141.856 29.032 142.6 29.536C143.344 30.016 144.172 30.256 145.084 30.256C145.66 30.256 146.2 30.16 146.704 29.968C147.232 29.776 147.7 29.512 148.108 29.176C148.516 28.84 148.816 28.456 149.008 28.024L153.724 29.464C153.292 30.4 152.656 31.24 151.816 31.984C151 32.728 150.028 33.316 148.9 33.748C147.796 34.156 146.548 34.36 145.156 34.36ZM165.264 34.36C163.752 34.36 162.384 34.108 161.16 33.604C159.936 33.076 158.892 32.368 158.028 31.48C157.164 30.568 156.492 29.536 156.012 28.384C155.556 27.208 155.328 25.972 155.328 24.676C155.328 22.876 155.724 21.232 156.516 19.744C157.332 18.256 158.484 17.068 159.972 16.18C161.484 15.268 163.26 14.812 165.3 14.812C167.364 14.812 169.128 15.268 170.592 16.18C172.056 17.068 173.172 18.256 173.94 19.744C174.732 21.208 175.128 22.792 175.128 24.496C175.128 24.784 175.116 25.084 175.092 25.396C175.068 25.684 175.044 25.924 175.02 26.116H160.44C160.536 27.076 160.812 27.916 161.268 28.636C161.748 29.356 162.348 29.908 163.068 30.292C163.812 30.652 164.604 30.832 165.444 30.832C166.404 30.832 167.304 30.604 168.144 30.148C169.008 29.668 169.596 29.044 169.908 28.276L174.048 29.428C173.592 30.388 172.932 31.24 172.068 31.984C171.228 32.728 170.232 33.316 169.08 33.748C167.928 34.156 166.656 34.36 165.264 34.36ZM160.332 23.056H170.196C170.1 22.096 169.824 21.268 169.368 20.572C168.936 19.852 168.36 19.3 167.64 18.916C166.92 18.508 166.116 18.304 165.228 18.304C164.364 18.304 163.572 18.508 162.852 18.916C162.156 19.3 161.58 19.852 161.124 20.572C160.692 21.268 160.428 22.096 160.332 23.056ZM195.599 34H190.775V23.416C190.775 21.904 190.511 20.8 189.983 20.104C189.455 19.408 188.723 19.06 187.787 19.06C187.139 19.06 186.479 19.228 185.807 19.564C185.159 19.9 184.571 20.368 184.043 20.968C183.515 21.544 183.131 22.216 182.891 22.984V34H178.067V15.136H182.423V18.628C182.903 17.812 183.515 17.128 184.259 16.576C185.003 16 185.855 15.568 186.815 15.28C187.799 14.968 188.831 14.812 189.911 14.812C191.087 14.812 192.047 15.028 192.791 15.46C193.559 15.868 194.135 16.432 194.519 17.152C194.927 17.848 195.203 18.64 195.347 19.528C195.515 20.416 195.599 21.316 195.599 22.228V34ZM208.578 34.36C207.042 34.36 205.662 34.108 204.438 33.604C203.214 33.076 202.17 32.356 201.306 31.444C200.442 30.508 199.77 29.452 199.29 28.276C198.834 27.1 198.606 25.864 198.606 24.568C198.606 22.792 199.002 21.172 199.794 19.708C200.61 18.22 201.762 17.032 203.25 16.144C204.738 15.256 206.502 14.812 208.542 14.812C210.582 14.812 212.334 15.256 213.798 16.144C215.262 17.032 216.354 18.196 217.074 19.636L212.358 21.076C211.95 20.38 211.41 19.852 210.738 19.492C210.066 19.108 209.322 18.916 208.506 18.916C207.594 18.916 206.754 19.156 205.986 19.636C205.242 20.092 204.654 20.752 204.222 21.616C203.79 22.456 203.574 23.44 203.574 24.568C203.574 25.672 203.79 26.656 204.222 27.52C204.678 28.36 205.278 29.032 206.022 29.536C206.766 30.016 207.594 30.256 208.506 30.256C209.082 30.256 209.622 30.16 210.126 29.968C210.654 29.776 211.122 29.512 211.53 29.176C211.938 28.84 212.238 28.456 212.43 28.024L217.146 29.464C216.714 30.4 216.078 31.24 215.238 31.984C214.422 32.728 213.45 33.316 212.322 33.748C211.218 34.156 209.97 34.36 208.578 34.36ZM228.686 34.36C227.174 34.36 225.806 34.108 224.582 33.604C223.358 33.076 222.314 32.368 221.45 31.48C220.586 30.568 219.914 29.536 219.434 28.384C218.978 27.208 218.75 25.972 218.75 24.676C218.75 22.876 219.146 21.232 219.938 19.744C220.754 18.256 221.906 17.068 223.394 16.18C224.906 15.268 226.682 14.812 228.722 14.812C230.786 14.812 232.55 15.268 234.014 16.18C235.478 17.068 236.594 18.256 237.362 19.744C238.154 21.208 238.55 22.792 238.55 24.496C238.55 24.784 238.538 25.084 238.514 25.396C238.49 25.684 238.466 25.924 238.442 26.116H223.862C223.958 27.076 224.234 27.916 224.69 28.636C225.17 29.356 225.77 29.908 226.49 30.292C227.234 30.652 228.026 30.832 228.866 30.832C229.826 30.832 230.726 30.604 231.566 30.148C232.43 29.668 233.018 29.044 233.33 28.276L237.47 29.428C237.014 30.388 236.354 31.24 235.49 31.984C234.65 32.728 233.654 33.316 232.502 33.748C231.35 34.156 230.078 34.36 228.686 34.36ZM223.754 23.056H233.618C233.522 22.096 233.246 21.268 232.79 20.572C232.358 19.852 231.782 19.3 231.062 18.916C230.342 18.508 229.538 18.304 228.65 18.304C227.786 18.304 226.994 18.508 226.274 18.916C225.578 19.3 225.002 19.852 224.546 20.572C224.114 21.268 223.85 22.096 223.754 23.056Z" fill="#003D84"/>
<path d="M114.214 26.5598C114.027 26.1704 113.763 25.8231 113.438 25.539C113.278 25.3997 113.105 25.2772 112.921 25.1734C112.739 25.072 112.549 24.9886 112.351 24.9243C111.556 24.6656 110.627 24.7243 109.745 24.9372C109.524 24.9924 109.305 25.0527 109.09 25.1252C108.982 25.1579 108.876 25.1993 108.77 25.2355C108.664 25.2717 108.556 25.3157 108.45 25.3579C108.025 25.5304 107.61 25.7149 107.199 25.9046C106.38 26.2865 105.583 26.6676 104.809 26.9547C104.102 27.2274 103.364 27.4116 102.612 27.503C102.034 27.5729 101.449 27.5526 100.878 27.4427C100.515 27.3765 100.168 27.246 99.8517 27.0573C99.6405 26.9176 99.5534 26.7986 99.5801 26.7314C99.6396 26.5753 100.126 26.6529 100.932 26.5719C101.419 26.5207 101.899 26.4207 102.366 26.2736C102.989 26.074 103.592 25.8169 104.167 25.5054C104.824 25.1605 105.533 24.7234 106.343 24.2552C106.749 24.0216 107.184 23.7828 107.654 23.5552C107.771 23.4982 107.892 23.4431 108.014 23.3879C108.135 23.3327 108.264 23.2775 108.394 23.2284C108.653 23.1241 108.919 23.0318 109.195 22.9456C109.479 22.8597 109.766 22.7886 110.057 22.7326C110.363 22.6729 110.673 22.6334 110.984 22.6145C111.312 22.5938 111.641 22.5984 111.969 22.6283C112.313 22.6628 112.653 22.7277 112.986 22.8223C113.154 22.8766 113.324 22.9275 113.491 22.9947C113.659 23.0626 113.823 23.14 113.983 23.2267C114.304 23.3984 114.606 23.6039 114.884 23.8397C115.456 24.3237 115.919 24.9246 116.241 25.6019V25.6071" fill="#003D84"/>
<path d="M115.035 25.7641V25.7581C114.734 25.0304 114.321 24.3541 113.812 23.7535C112.333 22.0256 110.232 20.9516 107.965 20.7652C107.284 20.7144 106.599 20.7576 105.93 20.8937C105.261 21.0265 104.589 21.2317 103.913 21.436C103.237 21.6514 102.55 21.8324 101.856 21.9783C101.193 22.1078 100.519 22.1791 99.8431 22.1913H99.368C99.2111 22.1861 99.0577 22.1758 98.905 22.168L98.6792 22.1551L98.4567 22.1309C98.3093 22.1145 98.1644 22.0999 98.0256 22.0809L97.6075 22.0119L97.4031 21.9766L97.204 21.9326L96.816 21.8464C96.6901 21.8136 96.5668 21.7766 96.4461 21.743C95.622 21.5094 94.8302 21.174 94.089 20.7446L93.8682 20.6161C93.7993 20.5721 93.7329 20.5299 93.6682 20.4833C93.5398 20.3971 93.4199 20.3161 93.3121 20.2359C93.1018 20.0686 92.925 19.9272 92.7948 19.7979C92.5362 19.5349 92.4241 19.3668 92.4698 19.3065C92.5155 19.2461 92.7121 19.2858 93.0388 19.4177C93.2035 19.4823 93.4078 19.5556 93.6424 19.6548L94.0243 19.7979L94.2329 19.8772L94.458 19.9522C95.1955 20.2082 95.9543 20.3983 96.7255 20.5204C96.8367 20.5368 96.9496 20.5566 97.0703 20.5721L97.4238 20.6101L97.604 20.6299L97.7885 20.6402L98.1636 20.6635C98.2912 20.6635 98.4222 20.6635 98.5498 20.6678H98.7473L98.9464 20.6601C99.0792 20.6549 99.2146 20.6514 99.3508 20.6437L99.7646 20.6075C100.339 20.5484 100.908 20.4443 101.467 20.2962C102.051 20.141 102.662 19.9186 103.325 19.6763C104.036 19.4024 104.762 19.1678 105.5 18.9737C105.913 18.8735 106.333 18.7998 106.756 18.7529C107.193 18.7101 107.633 18.6954 108.073 18.709C109.491 18.7739 110.882 19.1268 112.16 19.746C113.438 20.3653 114.577 21.238 115.507 22.3111C116.177 23.0883 116.718 23.968 117.11 24.9166V24.9244" fill="#003D84"/>
<path d="M116.025 24.1156V24.1078C115.641 23.131 115.262 22.1878 114.836 21.3101C114.785 21.1997 114.73 21.0911 114.675 20.9842C114.62 20.8773 114.566 20.7695 114.51 20.6643C114.394 20.4565 114.284 20.2453 114.161 20.0479C114.039 19.8504 113.916 19.6547 113.791 19.4633C113.73 19.3659 113.66 19.2788 113.596 19.1866C113.531 19.0943 113.465 19.0021 113.394 18.9176L113.187 18.6589C113.116 18.5727 113.041 18.496 112.97 18.4149L112.861 18.2934C112.824 18.2546 112.785 18.2184 112.747 18.1804L112.52 17.9554L112.281 17.7493C112.24 17.7148 112.201 17.6795 112.161 17.6467L112.037 17.5536L111.788 17.3665L111.529 17.1941C110.817 16.7637 110.045 16.4418 109.238 16.2388C108.428 16.0348 107.602 15.8964 106.769 15.825C105.943 15.7482 105.114 15.7137 104.301 15.6784C102.677 15.6103 101.094 15.5198 99.662 15.1913C98.9861 15.0407 98.3215 14.8434 97.673 14.6007C97.0984 14.3797 96.5374 14.1252 95.9926 13.8385C95.131 13.3768 94.3216 12.8235 93.5785 12.1883C92.3715 11.1296 91.912 10.3631 92.0137 10.2674C92.1327 10.1484 92.8009 10.6985 94.0907 11.4831C94.8701 11.9512 95.6841 12.3593 96.5254 12.7039C97.0169 12.897 97.548 13.0841 98.1187 13.2479C98.7212 13.4151 99.3333 13.5449 99.9517 13.6368C101.245 13.8359 102.711 13.8359 104.336 13.823C105.151 13.823 106.007 13.8152 106.911 13.8627C107.859 13.9067 108.802 14.0319 109.729 14.2368C110.751 14.4624 111.732 14.8436 112.639 15.3672L112.983 15.5861C113.096 15.6646 113.208 15.7456 113.321 15.8267L113.493 15.9483C113.547 15.9905 113.6 16.0345 113.653 16.0793L113.973 16.3457L114.274 16.6311C114.324 16.6794 114.375 16.7268 114.424 16.7759L114.566 16.9268C114.659 17.0286 114.755 17.1294 114.847 17.2329L115.11 17.5519C115.201 17.6571 115.283 17.7683 115.363 17.8787C115.443 17.989 115.531 18.0985 115.606 18.2123C115.76 18.4391 115.915 18.6667 116.054 18.9021C116.192 19.1374 116.329 19.3719 116.464 19.6099C116.529 19.7289 116.59 19.8496 116.654 19.9694C116.717 20.0893 116.779 20.2108 116.836 20.3324C117.316 21.3032 117.718 22.299 118.108 23.2879V23.2965" fill="#003D84"/>
<path d="M116.246 27.4669H116.242C115.776 27.5501 115.303 27.5828 114.83 27.5643C114.399 27.5531 114.014 27.5186 113.665 27.5005C113.357 27.4779 113.047 27.4779 112.738 27.5005C112.611 27.512 112.485 27.5322 112.361 27.5609C112.239 27.5872 112.12 27.6244 112.005 27.6721C111.738 27.7839 111.478 27.9138 111.229 28.0609L110.421 28.5213C110.169 28.6679 109.937 28.8093 109.725 28.9524C109.522 29.0873 109.326 29.2332 109.139 29.3896C108.762 29.7025 108.385 30.0465 107.996 30.3086C107.656 30.5502 107.274 30.7257 106.87 30.8259C106.607 30.8932 106.332 30.8932 106.069 30.8259C105.889 30.769 105.81 30.6854 105.81 30.6104C105.81 30.5354 105.896 30.4612 106.022 30.3767C106.193 30.2676 106.358 30.1499 106.517 30.0241C106.755 29.8283 106.972 29.6081 107.165 29.3671C107.403 29.0809 107.654 28.7127 108.008 28.2756C108.202 28.0381 108.412 27.814 108.636 27.6049C108.869 27.3867 109.12 27.1798 109.378 26.9806C109.506 26.8815 109.636 26.7841 109.768 26.6875L110.168 26.397C110.479 26.1705 110.807 25.9687 111.15 25.7934C111.351 25.6896 111.562 25.6031 111.778 25.5348C111.999 25.4648 112.224 25.4118 112.453 25.3761C112.879 25.3137 113.31 25.288 113.74 25.2994C114.147 25.3054 114.525 25.327 114.874 25.3287C115.19 25.3364 115.506 25.3139 115.817 25.2615" fill="#003D84"/>
<path d="M117.2 22.4602V22.4516C117.058 19.2239 115.645 16.1835 113.27 13.9937L112.991 13.7402C112.898 13.654 112.797 13.5824 112.702 13.5031L112.411 13.2694C112.312 13.1944 112.209 13.1263 112.109 13.0548L111.808 12.8427C111.709 12.7806 111.612 12.7177 111.512 12.6582C111.311 12.5418 111.107 12.4306 110.894 12.3314C110.05 11.9305 109.117 11.6641 108.169 11.421C107.222 11.1778 106.264 10.9511 105.342 10.689C103.617 10.2103 101.943 9.56135 100.346 8.75167C99.0404 8.08117 97.7886 7.31128 96.6013 6.44881L96.3867 6.29362L96.2772 6.19964L96.1849 6.11774C96.0631 6.00738 95.9481 5.89616 95.84 5.78408C95.6267 5.56931 95.4252 5.34309 95.2365 5.10641C94.9106 4.69535 94.6264 4.25289 94.3882 3.78556C94.1988 3.41669 94.0416 3.03217 93.9183 2.63629C93.8277 2.34942 93.7593 2.05599 93.7139 1.7586C93.6458 1.27578 93.6777 1.01627 93.751 1.00075C93.8243 0.985231 93.945 1.21112 94.1467 1.62669C94.4257 2.22391 94.7566 2.79543 95.1357 3.33465C95.4054 3.71334 95.7062 4.06892 96.0349 4.3977C96.2213 4.58415 96.417 4.76112 96.6212 4.92794C96.7275 5.01473 96.8373 5.10095 96.9505 5.18659L97.0367 5.24953L97.0807 5.28057L97.0919 5.28747L97.0971 5.29178L97.1092 5.29867L97.1204 5.30471L97.1376 5.31419L97.1868 5.34437L97.2868 5.403C98.4903 6.11731 99.7367 6.75654 101.019 7.31702C102.565 7.98294 104.168 8.50923 105.808 8.88962C106.7 9.09654 107.634 9.28449 108.623 9.5009C109.612 9.7173 110.674 9.97768 111.748 10.4493C112.015 10.5648 112.281 10.6993 112.544 10.8442C112.675 10.9174 112.802 10.9959 112.933 11.0735L113.297 11.3158C113.418 11.402 113.542 11.4779 113.661 11.5632L114.013 11.8322C114.128 11.9236 114.25 12.0098 114.362 12.1064L114.699 12.4004C116.564 14.0531 117.957 16.1703 118.738 18.5364C119.151 19.7765 119.386 21.0688 119.436 22.3748V22.386" fill="#003D84"/>
<path d="M115.288 28.178C114.683 33.1166 120.707 39.6173 121.814 39.7492C122.921 39.8812 118.705 33.6097 119.313 28.6678C119.922 23.7258 119.51 19.615 118.399 19.4779C117.287 19.3408 115.894 23.2361 115.288 28.178Z" fill="#003D84"/>
<path d="M117.185 11.4089C117.851 9.72594 120.493 6.47642 120.97 6.66696C121.446 6.8575 120.878 11.352 120.212 13.0341C119.545 14.7162 118.291 14.9912 117.814 14.8024C117.337 14.6136 116.517 13.0919 117.185 11.4089Z" fill="#003D84"/>
</svg>