<svg width="1440" height="527" viewBox="0 0 1440 527" fill="none" xmlns="http://www.w3.org/2000/svg">
<path d="M0 0H1440V527H0V0Z" fill="#168AF4"/>
<path fill-rule="evenodd" clip-rule="evenodd" d="M1031.06 254.114C1046.28 237.794 1061.68 222.021 1077.04 207.08C1080.87 231.175 1083.32 255.781 1084.49 280.292C1088.01 354.094 1079.9 426.675 1063.14 481.352C1057.86 498.589 1051.74 513.963 1044.9 527H1053.89C1060.25 514.246 1065.9 499.667 1070.79 483.697C1087.88 427.964 1096.04 354.433 1092.48 279.91C1091.21 253.297 1088.44 226.511 1084.04 200.324C1135.83 150.757 1186.75 111.157 1228.07 92.4381C1255.92 79.8186 1278.18 77.249 1293.4 85.7674C1308.44 94.1851 1318.46 114.535 1319.06 152.63C1320.96 275.055 1282.53 403.298 1263.11 452.004C1262.29 454.055 1263.29 456.382 1265.34 457.201C1267.39 458.019 1269.72 457.019 1270.54 454.967C1290.2 405.668 1328.99 276.337 1327.05 152.505C1326.45 113.644 1316.24 89.3796 1297.31 78.7862C1278.56 68.2934 1253.1 72.3153 1224.76 85.151C1183.37 103.904 1133.19 142.67 1082.37 190.863C1074.31 147.158 1061.59 105.404 1043.53 69.254C1030.28 42.7216 1014.12 19.124 994.76 0H983.127C1004.4 19.2755 1022.05 44.1438 1036.38 72.8281C1054.75 109.615 1067.55 152.51 1075.44 197.494C1058.63 213.699 1041.78 230.881 1025.21 248.658C955.827 323.06 914.854 408.187 907.313 473.75C905.058 493.363 905.774 511.434 909.763 527H918.047C913.921 512.279 912.971 494.58 915.261 474.664C922.557 411.227 962.513 327.621 1031.06 254.114ZM578.122 527C596.878 420.039 629.055 287.629 674.975 177.3C703.168 109.56 736.415 50.459 774.681 10.6557C778.264 6.92855 781.888 3.37405 785.552 0H773.96C772.267 1.66888 770.585 3.37298 768.914 5.11135C729.646 45.9566 695.939 106.109 667.589 174.226C621.184 285.72 588.793 419.394 570 527H578.122Z" fill="#88B3D7" fill-opacity="0.62"/>
</svg>