<svg width="26" height="29" viewBox="0 0 26 29" fill="none" xmlns="http://www.w3.org/2000/svg">
<path d="M24.5565 11.6924H18.7782L18.7782 1.5805C18.7782 1.19738 18.626 0.829952 18.3551 0.559045C18.0842 0.288138 17.7168 0.135945 17.3337 0.135945L8.66633 0.135945C8.28321 0.135945 7.91578 0.288138 7.64487 0.559045C7.37397 0.829952 7.22177 1.19738 7.22177 1.5805V11.6924H1.44354C1.17158 11.6929 0.905264 11.77 0.675167 11.915C0.445069 12.06 0.260522 12.2669 0.142713 12.512C0.0249038 12.7571 -0.0213907 13.0305 0.00914536 13.3008C0.0396814 13.571 0.145809 13.8272 0.315344 14.0398L11.8718 28.4854C12.4222 29.1715 13.5778 29.1715 14.1282 28.4854L25.6847 14.0398C25.8542 13.8272 25.9603 13.571 25.9909 13.3008C26.0214 13.0305 25.9751 12.7571 25.8573 12.512C25.7395 12.2669 25.5549 12.06 25.3248 11.915C25.0947 11.77 24.8284 11.6929 24.5565 11.6924Z" fill="#FF0000"/>
</svg>
