<svg width="121" height="116" viewBox="0 0 121 116" fill="none" xmlns="http://www.w3.org/2000/svg">
<path d="M84.6731 98.1234L81.3946 71.5325C80.93 67.7661 79.1232 64.3014 76.3139 61.7899C73.5047 59.2783 69.8865 57.8931 66.1397 57.8945H54.8497C51.1047 57.8956 47.489 59.282 44.6819 61.7933C41.8747 64.3046 40.0694 67.7679 39.605 71.5325L36.3215 98.1234C36.1413 99.5843 36.2699 101.067 36.6989 102.474C37.1279 103.881 37.8473 105.179 38.8095 106.282C39.7717 107.386 40.9546 108.269 42.2797 108.874C43.6047 109.478 45.0416 109.79 46.4948 109.789H74.5048C75.9577 109.79 77.394 109.477 78.7184 108.872C80.0428 108.267 81.2251 107.384 82.1867 106.28C83.1483 105.177 83.8673 103.879 84.296 102.473C84.7247 101.066 84.8532 99.5839 84.6731 98.1234V98.1234Z" stroke="#003D84" stroke-opacity="0.15" stroke-width="12" stroke-linecap="round" stroke-linejoin="round"/>
<path d="M60.5001 37.1369C68.9874 37.1369 75.8677 30.1667 75.8677 21.5685C75.8677 12.9702 68.9874 6 60.5001 6C52.0128 6 45.1325 12.9702 45.1325 21.5685C45.1325 30.1667 52.0128 37.1369 60.5001 37.1369Z" stroke="#003D84" stroke-opacity="0.15" stroke-width="12"/>
<path d="M19.5198 52.7052C25.178 52.7052 29.7649 48.0584 29.7649 42.3262C29.7649 36.5941 25.178 31.9473 19.5198 31.9473C13.8616 31.9473 9.27475 36.5941 9.27475 42.3262C9.27475 48.0584 13.8616 52.7052 19.5198 52.7052Z" stroke="#003D84" stroke-opacity="0.15" stroke-width="12"/>
<path d="M101.48 52.7052C107.138 52.7052 111.725 48.0584 111.725 42.3262C111.725 36.5941 107.138 31.9473 101.48 31.9473C95.8221 31.9473 91.2352 36.5941 91.2352 42.3262C91.2352 48.0584 95.8221 52.7052 101.48 52.7052Z" stroke="#003D84" stroke-opacity="0.15" stroke-width="12"/>
<path d="M19.5196 68.2739H17.9521C15.5269 68.2736 13.1802 69.1449 11.3296 70.7328C9.47894 72.3206 8.24432 74.5221 7.84537 76.9456L6.13957 87.3245C5.89477 88.8115 5.97268 90.3348 6.36787 91.7882C6.76307 93.2416 7.46605 94.5904 8.42794 95.7407C9.38983 96.8909 10.5875 97.8151 11.9377 98.449C13.2879 99.0828 14.7582 99.411 16.2463 99.4108H34.8872" stroke="#003D84" stroke-opacity="0.15" stroke-width="12" stroke-linecap="round" stroke-linejoin="round"/>
<path d="M101.48 68.2739H103.048C105.473 68.2736 107.82 69.1449 109.67 70.7328C111.521 72.3206 112.756 74.5221 113.155 76.9456L114.86 87.3245C115.105 88.8115 115.027 90.3348 114.632 91.7882C114.237 93.2416 113.534 94.5904 112.572 95.7407C111.61 96.8909 110.412 97.8151 109.062 98.449C107.712 99.0828 106.242 99.411 104.754 99.4108H86.1128" stroke="#003D84" stroke-opacity="0.15" stroke-width="12" stroke-linecap="round" stroke-linejoin="round"/>
</svg>
