<svg width="30" height="30" viewBox="0 0 30 24" fill="none" xmlns="http://www.w3.org/2000/svg">
<path d="M27.6055 2.80469L30 0.503906V0H21.707L15.7969 14.7813L9.07422 0H0.378906V0.503906L3.17578 3.88672C3.44922 4.13672 3.58984 4.50391 3.55469 4.87109V18.1641C3.64062 18.6445 3.48828 19.1328 3.15234 19.4805L0 23.3203V23.8164H8.92969V23.3125L5.78125 19.4844C5.61256 19.3131 5.48567 19.1052 5.41047 18.8769C5.33526 18.6486 5.31377 18.406 5.34766 18.168V6.66797L13.1875 23.8242H14.0977L20.8398 6.66797V20.3359C20.8398 20.6953 20.8398 20.7695 20.6055 21.0078L18.1797 23.3633V23.8672H29.9453V23.3633L27.6055 21.0625C27.4023 20.9062 27.2969 20.6445 27.3398 20.3906V3.47656C27.3196 3.35104 27.3336 3.22238 27.3804 3.10414C27.4271 2.98589 27.5049 2.88245 27.6055 2.80469Z" fill="#003D84"/>
</svg>