<svg width="142" height="40" viewBox="0 0 277 78" fill="none" xmlns="http://www.w3.org/2000/svg">
<path fill-rule="evenodd" clip-rule="evenodd" d="M45.6604 53.1285C46.0192 53.1425 46.3782 53.1417 46.7364 53.1264C46.6803 53.5323 46.6268 53.9424 46.576 54.3561C45.3656 64.2332 57.4135 77.2347 59.6276 77.4986C60.4866 77.6009 59.7432 75.7757 58.5825 72.9261C56.7515 68.4304 53.8819 61.385 54.627 55.3356C55.3954 49.0968 55.3504 43.5203 54.6538 40.1867C54.4242 38.4505 54.0299 36.7381 53.4752 35.0729C51.9141 30.3406 49.1273 26.1062 45.3983 22.8007L44.7241 22.2127C44.5802 22.0887 44.4284 21.9732 44.277 21.858L44.2768 21.8579L44.2767 21.8578L44.2767 21.8578C44.1924 21.7937 44.1083 21.7297 44.0258 21.6644L43.3222 21.1264C43.2019 21.0401 43.079 20.9587 42.9556 20.8769C42.835 20.797 42.7139 20.7168 42.5945 20.6315L41.8669 20.147C41.7914 20.1023 41.7165 20.0575 41.6419 20.0128C41.4573 19.9023 41.2741 19.7927 41.0875 19.6883C40.5615 19.3986 40.0304 19.1296 39.4959 18.8986C37.3474 17.9553 35.223 17.4346 33.2452 17.0018C32.5047 16.8397 31.7797 16.6857 31.0688 16.5346L31.0685 16.5346C29.8807 16.2821 28.7323 16.0381 27.6169 15.7792C24.3366 15.0184 21.1309 13.9659 18.0382 12.634C15.4734 11.5131 12.9805 10.2346 10.5735 8.80597L10.3735 8.68872L10.2752 8.62836L10.2407 8.6094L10.2183 8.59733L10.1941 8.58353L10.1838 8.57491L10.1614 8.56111L10.0734 8.49904L9.901 8.37316C9.67454 8.20188 9.45497 8.02944 9.2423 7.85586C8.83395 7.52222 8.44261 7.16828 8.06975 6.79539C7.41229 6.13782 6.81072 5.42666 6.27126 4.66927C5.51308 3.59084 4.85126 2.44779 4.29344 1.25335C3.88994 0.422216 3.64854 -0.0295615 3.50197 0.00147667C3.3554 0.0325148 3.2916 0.551542 3.42782 1.51717C3.51864 2.11195 3.65527 2.69882 3.83649 3.27255C4.0831 4.06432 4.39752 4.83335 4.77626 5.5711C5.25283 6.50576 5.82121 7.39068 6.47301 8.2128C6.85045 8.68616 7.25339 9.13861 7.68005 9.56813C7.89617 9.7923 8.12608 10.0147 8.36979 10.2355L8.55429 10.3993L8.77328 10.5872L9.20264 10.8976C11.5772 12.6225 14.0808 14.1623 16.6915 15.5033C19.8857 17.1227 23.2331 18.4206 26.684 19.3779C27.9756 19.7452 29.3028 20.0778 30.6335 20.4113L30.6335 20.4113L30.6335 20.4113L30.6335 20.4113L30.6336 20.4113L30.6342 20.4115L30.6375 20.4123L30.6394 20.4128C31.2058 20.5547 31.7729 20.6968 32.3382 20.8419C34.2332 21.3281 36.1007 21.861 37.7888 22.6628C38.213 22.8611 38.6217 23.0835 39.0234 23.3163C39.1679 23.4022 39.3096 23.4917 39.4519 23.5816L39.4519 23.5816L39.4521 23.5817L39.4526 23.5821C39.5071 23.6165 39.5617 23.651 39.6166 23.6853L40.2184 24.1095C40.2906 24.1612 40.3634 24.2119 40.4364 24.2627L40.4364 24.2628C40.5657 24.3528 40.6952 24.443 40.8219 24.5389L41.403 25.0062C41.4725 25.0637 41.5432 25.1192 41.6142 25.1748L41.6142 25.1748L41.6142 25.1749L41.6143 25.1749C41.7388 25.2725 41.8638 25.3705 41.9824 25.4804L42.5394 25.9873C46.387 29.5345 48.9721 34.1975 49.9671 39.2716C49.8706 39.0688 49.7726 38.8664 49.673 38.6646C49.5574 38.4214 49.435 38.1783 49.3074 37.9386C49.2549 37.8401 49.2033 37.7412 49.1518 37.6424L49.1517 37.6423L49.1517 37.6422C49.0779 37.5008 49.0042 37.3596 48.928 37.2196C48.6573 36.7436 48.3849 36.2746 48.1073 35.8039C47.8435 35.3567 47.5503 34.9236 47.2585 34.4926L47.2123 34.4244C47.1136 34.2747 47.0037 34.1286 46.8944 33.9834L46.8944 33.9834C46.8376 33.9079 46.7809 33.8326 46.7261 33.7571C46.5657 33.5364 46.4019 33.3139 46.2208 33.1036L45.6932 32.4656C45.5761 32.333 45.4548 32.2026 45.3337 32.0725C45.2658 31.9995 45.198 31.9266 45.131 31.8534L44.8483 31.5517C44.7828 31.4862 44.7157 31.4222 44.6487 31.3582C44.6151 31.3262 44.5816 31.2942 44.5482 31.262L43.9464 30.6912L43.3067 30.1584C43.1998 30.0687 43.0946 29.9808 42.986 29.8963L42.6411 29.6532L42.4758 29.5342C42.3061 29.412 42.1375 29.2906 41.9669 29.1721L41.2771 28.7341C39.4644 27.687 37.5017 26.9246 35.4575 26.4735C33.6039 26.0636 31.7186 25.8132 29.8223 25.7251C28.2351 25.6419 26.7223 25.6436 25.2744 25.6453C25.0723 25.6455 24.8714 25.6458 24.6717 25.6458C21.4213 25.6716 18.49 25.6716 15.9034 25.2733C14.6666 25.0897 13.4423 24.8299 12.2375 24.4956C11.096 24.168 10.0338 23.7938 9.0509 23.4076C7.36814 22.7184 5.74026 21.9021 4.18135 20.9659C3.25128 20.4002 2.48283 19.8954 1.8692 19.4923C0.78088 18.7774 0.179575 18.3824 0.0274108 18.5346C-0.176062 18.726 0.743013 20.2589 3.15709 22.3764C4.64324 23.6468 6.26198 24.7533 7.98525 25.6768C9.07472 26.2502 10.1969 26.7592 11.346 27.2011C12.643 27.6866 13.9723 28.0813 15.3241 28.3823C18.1882 29.0393 21.3541 29.2203 24.6027 29.3566L24.7735 29.364C26.3448 29.4322 27.9437 29.5016 29.5378 29.6497C31.2035 29.7925 32.8551 30.0693 34.4763 30.4774C36.0899 30.8834 37.634 31.5273 39.0579 32.388L39.5752 32.7328L40.0735 33.107L40.3219 33.2932C40.3732 33.3348 40.4232 33.3783 40.4735 33.4222C40.5026 33.4477 40.5318 33.4732 40.5615 33.4984L41.0392 33.9106L41.4944 34.3606C41.5229 34.3891 41.5516 34.4171 41.5803 34.445C41.628 34.4916 41.6757 34.538 41.722 34.5865L41.9393 34.8296C41.9912 34.8884 42.044 34.9461 42.097 35.0039L42.0971 35.0041C42.1902 35.1056 42.2838 35.2078 42.3738 35.3176L42.7877 35.8349C42.9308 36.0039 43.0618 36.1884 43.1912 36.3729C43.2372 36.4386 43.2846 36.503 43.332 36.5675L43.3321 36.5676C43.4178 36.6841 43.5038 36.801 43.5826 36.9264C43.8326 37.3092 44.0775 37.7007 44.3223 38.0955C44.4967 38.3768 44.6589 38.6721 44.8219 38.9689L44.822 38.969L44.8227 38.9703C44.8883 39.0897 44.954 39.2094 45.0207 39.3284C45.0928 39.4638 45.1627 39.6012 45.2328 39.739C45.2717 39.8154 45.3107 39.8919 45.35 39.9682C45.4604 40.182 45.569 40.3993 45.6725 40.62C45.8487 40.9831 46.0208 41.3518 46.1899 41.7256C44.4958 39.9867 42.5101 38.5532 40.3199 37.492C37.7637 36.2535 34.9824 35.5479 32.145 35.4179C31.2663 35.3909 30.3868 35.4202 29.5119 35.5059C28.6659 35.5996 27.8268 35.747 26.9995 35.9473C25.5247 36.3356 24.0723 36.8048 22.649 37.3526C21.3247 37.8372 20.1022 38.2821 18.9331 38.5924C17.8165 38.8886 16.6784 39.0967 15.5292 39.2149L14.7015 39.2873C14.5104 39.2982 14.3201 39.3049 14.1318 39.3115L14.1314 39.3115C14.0515 39.3143 13.9719 39.317 13.8928 39.3201L13.4945 39.3356H13.0996C12.8444 39.327 12.5823 39.327 12.3271 39.327L11.577 39.2805L11.208 39.2598L10.8476 39.2201L10.1406 39.1442C9.98728 39.1245 9.84019 39.1013 9.69626 39.0786L9.69607 39.0786C9.6135 39.0656 9.53197 39.0527 9.4509 39.0408C7.90865 38.7966 6.39104 38.4164 4.91588 37.9044L4.46583 37.7544L4.04854 37.5958L3.28466 37.3095C2.96142 37.1729 2.66686 37.0608 2.40716 36.962L2.40649 36.9617L2.40645 36.9617C2.28958 36.9172 2.17978 36.8755 2.07762 36.8353C1.42409 36.5715 1.03094 36.4922 0.939549 36.6129C0.848159 36.7336 1.07232 37.0698 1.58963 37.5958C1.85 37.8544 2.20349 38.1372 2.62423 38.4717C2.83977 38.6321 3.07946 38.7942 3.33639 38.9666C3.46389 39.0584 3.59474 39.1418 3.7306 39.2285L3.73643 39.2322L4.17787 39.4891C5.66027 40.3479 7.24392 41.0187 8.89222 41.4859C8.97629 41.5093 9.06099 41.5336 9.14631 41.558L9.1469 41.5582L9.14709 41.5582L9.14735 41.5583C9.3067 41.6039 9.46824 41.6502 9.63196 41.6928L10.4079 41.8652L10.8062 41.9532L11.2149 42.0239L12.0512 42.1618C12.2662 42.1912 12.4884 42.2154 12.7146 42.24L12.715 42.2401L12.7153 42.2401L12.9134 42.2618L13.3583 42.3101L13.81 42.336C13.908 42.341 14.0061 42.3465 14.1046 42.352C14.313 42.3637 14.5229 42.3755 14.736 42.3825H15.6861C17.0381 42.3582 18.3853 42.2157 19.7125 41.9566C21.1008 41.6649 22.4734 41.3029 23.825 40.872L23.9579 40.8319L23.9581 40.8318C25.2667 40.4366 26.5658 40.0443 27.86 39.7874C29.1982 39.5152 30.5676 39.4288 31.9294 39.5305C35.5403 39.8273 38.9414 41.2503 41.6708 43.5634C41.1016 43.4178 40.5222 43.3153 39.9373 43.2567C39.2826 43.1969 38.6242 43.1877 37.9681 43.2291C37.3457 43.2669 36.7265 43.3458 36.1144 43.4653C35.5327 43.5773 34.9571 43.7195 34.3901 43.8913C33.8383 44.0637 33.3055 44.2482 32.7882 44.4568C32.5278 44.5551 32.2709 44.6655 32.0278 44.7758L32.0277 44.7759C31.7846 44.8862 31.5415 44.9966 31.307 45.1104C30.3672 45.5656 29.4981 46.0432 28.686 46.5105C28.1696 46.8088 27.6738 47.1008 27.1955 47.3826C26.1724 47.9852 25.2291 48.5408 24.3337 49.0108C23.1834 49.6338 21.9774 50.1481 20.7316 50.5472C19.7981 50.8415 18.8374 51.0414 17.864 51.1438C17.2583 51.2047 16.7428 51.2208 16.329 51.2338C15.6415 51.2553 15.2345 51.268 15.1602 51.4628C15.1068 51.5973 15.2809 51.8353 15.7034 52.1146C16.3359 52.4921 17.0308 52.7531 17.7554 52.8854C18.898 53.1052 20.0679 53.1459 21.223 53.0061C22.7278 52.8233 24.2041 52.4549 25.6184 51.9094C27.0069 51.3946 28.4314 50.7285 29.892 50.0457L29.8922 50.0456L29.8952 50.0442L30.2516 49.8776L30.3983 49.8092C31.219 49.4298 32.0502 49.0608 32.9003 48.716L32.9818 48.6834C33.1674 48.6092 33.355 48.5343 33.54 48.4711C33.6161 48.4451 33.6922 48.4178 33.7685 48.3904L33.7685 48.3904L33.7685 48.3904L33.7686 48.3904C33.9048 48.3415 34.0416 48.2924 34.1797 48.2504C34.6108 48.1055 35.0488 47.9848 35.4902 47.8745C37.2542 47.4486 39.1114 47.3313 40.7029 47.8486C41.0976 47.9772 41.4788 48.1441 41.841 48.347C41.9893 48.4304 42.1341 48.5198 42.2749 48.6151C41.8171 48.6398 41.3604 48.6855 40.9064 48.7521C40.4489 48.8234 39.9976 48.9294 39.5562 49.0693C39.1234 49.206 38.7029 49.379 38.2992 49.5867C37.6146 49.9371 36.9585 50.3407 36.3369 50.7937L35.5368 51.3748C35.273 51.5679 35.0126 51.7628 34.7557 51.9611C34.2401 52.3594 33.7383 52.7732 33.2727 53.2095C32.8239 53.6278 32.4039 54.076 32.0157 54.551C31.6496 55.0026 31.3388 55.4173 31.0582 55.7917L31.0582 55.7918L31.0581 55.7918L31.0581 55.7919L31.0579 55.7921L31.0577 55.7924L31.0574 55.7928C30.795 56.1428 30.5591 56.4575 30.3293 56.7341C29.9446 57.216 29.5106 57.6564 29.0343 58.048C28.7165 58.2996 28.3861 58.535 28.0445 58.7533C27.7928 58.9222 27.6203 59.0705 27.6203 59.2206C27.6203 59.3706 27.7773 59.5378 28.1376 59.6516C28.6631 59.7862 29.2141 59.7862 29.7396 59.6516C30.5485 59.4512 31.3125 59.1002 31.9915 58.617C32.5756 58.2233 33.1471 57.7372 33.7147 57.2544L33.7148 57.2542C33.9029 57.0943 34.0905 56.9347 34.278 56.7789C34.6525 56.4661 35.044 56.1743 35.4506 55.9046C35.873 55.6184 36.3386 55.3356 36.8421 55.0425L38.4578 54.1217C38.9568 53.8274 39.4753 53.5676 40.0097 53.344C40.24 53.2487 40.4783 53.1742 40.7219 53.1216C40.97 53.0641 41.2218 53.0238 41.4754 53.0008C42.0931 52.9556 42.7132 52.9556 43.3308 53.0008C43.5721 53.0134 43.8224 53.0299 44.0822 53.047L44.0823 53.047L44.0824 53.047L44.0825 53.047C44.5727 53.0793 45.097 53.1138 45.6604 53.1285ZM57.9394 11.3338C56.9859 10.9528 51.7025 17.4518 50.3696 20.8177C49.0349 24.1836 50.6748 27.2271 51.6283 27.6047C52.5819 27.9824 55.0908 27.4323 56.4238 24.0681C57.7567 20.7039 58.893 11.7149 57.9394 11.3338ZM83.22 44C81.588 44 80.772 43.184 80.772 41.552V21.068C80.772 19.436 81.588 18.62 83.22 18.62H91.86C94.524 18.62 96.588 19.208 98.052 20.384C99.516 21.536 100.248 23.144 100.248 25.208C100.248 26.576 99.9 27.752 99.204 28.736C98.508 29.72 97.548 30.44 96.324 30.896C97.764 31.304 98.88 32.024 99.672 33.056C100.488 34.064 100.896 35.348 100.896 36.908C100.896 39.164 100.128 40.916 98.592 42.164C97.08 43.388 94.968 44 92.256 44H83.22ZM85.2 29.384H91.068C94.212 29.384 95.784 28.172 95.784 25.748C95.784 23.324 94.212 22.112 91.068 22.112H85.2V29.384ZM85.2 40.508H91.68C94.848 40.508 96.432 39.236 96.432 36.692C96.432 34.148 94.848 32.876 91.68 32.876H85.2V40.508ZM113.801 44.36C111.809 44.36 110.093 43.988 108.653 43.244C107.213 42.5 106.097 41.444 105.305 40.076C104.537 38.708 104.153 37.088 104.153 35.216C104.153 33.392 104.525 31.796 105.269 30.428C106.037 29.06 107.081 27.992 108.401 27.224C109.745 26.432 111.269 26.036 112.973 26.036C115.469 26.036 117.437 26.828 118.877 28.412C120.341 29.996 121.073 32.156 121.073 34.892C121.073 35.78 120.497 36.224 119.345 36.224H108.473C108.809 39.368 110.609 40.94 113.873 40.94C114.497 40.94 115.193 40.868 115.961 40.724C116.753 40.556 117.497 40.28 118.193 39.896C118.817 39.536 119.345 39.428 119.777 39.572C120.209 39.692 120.509 39.944 120.677 40.328C120.869 40.712 120.893 41.144 120.749 41.624C120.629 42.08 120.293 42.476 119.741 42.812C118.901 43.34 117.929 43.736 116.825 44C115.745 44.24 114.737 44.36 113.801 44.36ZM113.153 29.096C111.833 29.096 110.765 29.504 109.949 30.32C109.133 31.136 108.641 32.24 108.473 33.632H117.329C117.233 32.168 116.825 31.052 116.105 30.284C115.409 29.492 114.425 29.096 113.153 29.096ZM126.869 44.288C125.381 44.288 124.637 43.52 124.637 41.984V28.376C124.637 26.864 125.369 26.108 126.833 26.108C128.297 26.108 129.029 26.864 129.029 28.376V29.132C129.629 28.124 130.433 27.356 131.441 26.828C132.473 26.3 133.625 26.036 134.897 26.036C139.049 26.036 141.125 28.448 141.125 33.272V41.984C141.125 43.52 140.381 44.288 138.893 44.288C137.381 44.288 136.625 43.52 136.625 41.984V33.488C136.625 32.12 136.361 31.124 135.833 30.5C135.329 29.876 134.537 29.564 133.457 29.564C132.137 29.564 131.081 29.984 130.289 30.824C129.521 31.64 129.137 32.732 129.137 34.1V41.984C129.137 43.52 128.381 44.288 126.869 44.288ZM154.371 44.36C152.379 44.36 150.663 43.988 149.223 43.244C147.783 42.5 146.667 41.444 145.875 40.076C145.107 38.708 144.723 37.088 144.723 35.216C144.723 33.392 145.095 31.796 145.839 30.428C146.607 29.06 147.651 27.992 148.971 27.224C150.315 26.432 151.839 26.036 153.543 26.036C156.039 26.036 158.007 26.828 159.447 28.412C160.911 29.996 161.643 32.156 161.643 34.892C161.643 35.78 161.067 36.224 159.915 36.224H149.043C149.379 39.368 151.179 40.94 154.443 40.94C155.067 40.94 155.763 40.868 156.531 40.724C157.323 40.556 158.067 40.28 158.763 39.896C159.387 39.536 159.915 39.428 160.347 39.572C160.779 39.692 161.079 39.944 161.247 40.328C161.439 40.712 161.463 41.144 161.319 41.624C161.199 42.08 160.863 42.476 160.311 42.812C159.471 43.34 158.499 43.736 157.395 44C156.315 44.24 155.307 44.36 154.371 44.36ZM153.723 29.096C152.403 29.096 151.335 29.504 150.519 30.32C149.703 31.136 149.211 32.24 149.043 33.632H157.899C157.803 32.168 157.395 31.052 156.675 30.284C155.979 29.492 154.995 29.096 153.723 29.096ZM180.293 22.796C178.589 22.796 177.737 22.004 177.737 20.42C177.737 18.836 178.589 18.044 180.293 18.044C182.021 18.044 182.885 18.836 182.885 20.42C182.885 21.164 182.657 21.752 182.201 22.184C181.769 22.592 181.133 22.796 180.293 22.796ZM168.593 44.288C167.081 44.288 166.325 43.52 166.325 41.984V29.78H164.669C163.469 29.78 162.869 29.216 162.869 28.088C162.869 26.96 163.469 26.396 164.669 26.396H166.325V26.36C166.325 23.936 166.937 22.1 168.161 20.852C169.385 19.604 171.161 18.86 173.489 18.62L174.569 18.512C175.265 18.44 175.769 18.56 176.081 18.872C176.417 19.184 176.597 19.568 176.621 20.024C176.645 20.456 176.537 20.852 176.297 21.212C176.081 21.572 175.757 21.776 175.325 21.824L174.461 21.896C173.189 21.992 172.265 22.34 171.689 22.94C171.113 23.54 170.825 24.44 170.825 25.64V26.396H180.221C181.709 26.396 182.453 27.2 182.453 28.808V41.804C182.453 42.572 182.261 43.172 181.877 43.604C181.517 44.036 180.965 44.252 180.221 44.252C179.501 44.252 178.937 44.036 178.529 43.604C178.145 43.172 177.953 42.572 177.953 41.804V29.78H170.825V41.984C170.825 43.52 170.081 44.288 168.593 44.288ZM195.281 44.36C193.433 44.36 191.825 43.988 190.457 43.244C189.089 42.476 188.033 41.396 187.289 40.004C186.545 38.612 186.173 36.98 186.173 35.108C186.173 33.236 186.545 31.628 187.289 30.284C188.033 28.916 189.089 27.872 190.457 27.152C191.825 26.408 193.433 26.036 195.281 26.036C196.073 26.036 196.925 26.144 197.837 26.36C198.773 26.576 199.649 26.936 200.465 27.44C200.945 27.728 201.221 28.1 201.293 28.556C201.389 29.012 201.329 29.432 201.113 29.816C200.921 30.2 200.621 30.476 200.213 30.644C199.829 30.812 199.385 30.752 198.881 30.464C197.777 29.84 196.709 29.528 195.677 29.528C194.117 29.528 192.905 30.02 192.041 31.004C191.201 31.964 190.781 33.344 190.781 35.144C190.781 36.92 191.201 38.324 192.041 39.356C192.905 40.364 194.117 40.868 195.677 40.868C196.709 40.868 197.777 40.568 198.881 39.968C199.385 39.68 199.829 39.62 200.213 39.788C200.597 39.956 200.873 40.244 201.041 40.652C201.209 41.036 201.245 41.456 201.149 41.912C201.053 42.344 200.777 42.704 200.321 42.992C199.529 43.472 198.689 43.82 197.801 44.036C196.913 44.252 196.073 44.36 195.281 44.36ZM212.45 44.36C210.458 44.36 208.742 43.988 207.302 43.244C205.862 42.5 204.746 41.444 203.954 40.076C203.186 38.708 202.802 37.088 202.802 35.216C202.802 33.392 203.174 31.796 203.918 30.428C204.686 29.06 205.73 27.992 207.05 27.224C208.394 26.432 209.918 26.036 211.622 26.036C214.118 26.036 216.086 26.828 217.526 28.412C218.99 29.996 219.722 32.156 219.722 34.892C219.722 35.78 219.146 36.224 217.994 36.224H207.122C207.458 39.368 209.258 40.94 212.522 40.94C213.146 40.94 213.842 40.868 214.61 40.724C215.402 40.556 216.146 40.28 216.842 39.896C217.466 39.536 217.994 39.428 218.426 39.572C218.858 39.692 219.158 39.944 219.326 40.328C219.518 40.712 219.542 41.144 219.398 41.624C219.278 42.08 218.942 42.476 218.39 42.812C217.55 43.34 216.578 43.736 215.474 44C214.394 44.24 213.386 44.36 212.45 44.36ZM211.802 29.096C210.482 29.096 209.414 29.504 208.598 30.32C207.782 31.136 207.29 32.24 207.122 33.632H215.978C215.882 32.168 215.474 31.052 214.754 30.284C214.058 29.492 213.074 29.096 211.802 29.096ZM225.517 44.288C224.029 44.288 223.285 43.52 223.285 41.984V28.376C223.285 26.864 224.017 26.108 225.481 26.108C226.945 26.108 227.677 26.864 227.677 28.376V29.132C228.277 28.124 229.081 27.356 230.089 26.828C231.121 26.3 232.273 26.036 233.545 26.036C237.697 26.036 239.773 28.448 239.773 33.272V41.984C239.773 43.52 239.029 44.288 237.541 44.288C236.029 44.288 235.273 43.52 235.273 41.984V33.488C235.273 32.12 235.009 31.124 234.481 30.5C233.977 29.876 233.185 29.564 232.105 29.564C230.785 29.564 229.729 29.984 228.937 30.824C228.169 31.64 227.785 32.732 227.785 34.1V41.984C227.785 43.52 227.029 44.288 225.517 44.288ZM252.48 44.36C250.632 44.36 249.024 43.988 247.656 43.244C246.288 42.476 245.232 41.396 244.488 40.004C243.744 38.612 243.372 36.98 243.372 35.108C243.372 33.236 243.744 31.628 244.488 30.284C245.232 28.916 246.288 27.872 247.656 27.152C249.024 26.408 250.632 26.036 252.48 26.036C253.272 26.036 254.124 26.144 255.036 26.36C255.972 26.576 256.848 26.936 257.664 27.44C258.144 27.728 258.42 28.1 258.492 28.556C258.588 29.012 258.528 29.432 258.312 29.816C258.12 30.2 257.82 30.476 257.412 30.644C257.028 30.812 256.584 30.752 256.08 30.464C254.976 29.84 253.908 29.528 252.876 29.528C251.316 29.528 250.104 30.02 249.24 31.004C248.4 31.964 247.98 33.344 247.98 35.144C247.98 36.92 248.4 38.324 249.24 39.356C250.104 40.364 251.316 40.868 252.876 40.868C253.908 40.868 254.976 40.568 256.08 39.968C256.584 39.68 257.028 39.62 257.412 39.788C257.796 39.956 258.072 40.244 258.24 40.652C258.408 41.036 258.444 41.456 258.348 41.912C258.252 42.344 257.976 42.704 257.52 42.992C256.728 43.472 255.888 43.82 255 44.036C254.112 44.252 253.272 44.36 252.48 44.36ZM269.649 44.36C267.657 44.36 265.941 43.988 264.501 43.244C263.061 42.5 261.945 41.444 261.153 40.076C260.385 38.708 260.001 37.088 260.001 35.216C260.001 33.392 260.373 31.796 261.117 30.428C261.885 29.06 262.929 27.992 264.249 27.224C265.593 26.432 267.117 26.036 268.821 26.036C271.317 26.036 273.285 26.828 274.725 28.412C276.189 29.996 276.921 32.156 276.921 34.892C276.921 35.78 276.345 36.224 275.193 36.224H264.321C264.657 39.368 266.457 40.94 269.721 40.94C270.345 40.94 271.041 40.868 271.809 40.724C272.601 40.556 273.345 40.28 274.041 39.896C274.665 39.536 275.193 39.428 275.625 39.572C276.057 39.692 276.357 39.944 276.525 40.328C276.717 40.712 276.741 41.144 276.597 41.624C276.477 42.08 276.141 42.476 275.589 42.812C274.749 43.34 273.777 43.736 272.673 44C271.593 44.24 270.585 44.36 269.649 44.36ZM269.001 29.096C267.681 29.096 266.613 29.504 265.797 30.32C264.981 31.136 264.489 32.24 264.321 33.632H273.177C273.081 32.168 272.673 31.052 271.953 30.284C271.257 29.492 270.273 29.096 269.001 29.096ZM82.536 68.694C83.1 69.018 83.742 69.18 84.462 69.18C85.098 69.18 85.68 69.06 86.208 68.82C86.748 68.568 87.216 68.22 87.612 67.776C88.008 67.32 88.314 66.798 88.53 66.21C88.758 65.622 88.872 64.992 88.872 64.32C88.872 63.648 88.77 63.018 88.566 62.43C88.374 61.842 88.092 61.32 87.72 60.864C87.36 60.408 86.928 60.054 86.424 59.802C85.92 59.538 85.362 59.406 84.75 59.406C84.018 59.406 83.376 59.568 82.824 59.892C82.284 60.216 81.846 60.66 81.51 61.224V55.86H79.098V69H81.204V67.362C81.528 67.926 81.972 68.37 82.536 68.694ZM84.84 66.912C84.528 67.056 84.18 67.128 83.796 67.128C83.568 67.128 83.334 67.092 83.094 67.02C82.866 66.936 82.644 66.828 82.428 66.696C82.212 66.552 82.02 66.384 81.852 66.192C81.696 66 81.582 65.784 81.51 65.544V63.294C81.654 62.946 81.846 62.634 82.086 62.358C82.338 62.082 82.62 61.866 82.932 61.71C83.256 61.542 83.592 61.458 83.94 61.458C84.432 61.458 84.858 61.59 85.218 61.854C85.59 62.118 85.878 62.472 86.082 62.916C86.298 63.348 86.406 63.822 86.406 64.338C86.406 64.71 86.34 65.07 86.208 65.418C86.088 65.754 85.908 66.048 85.668 66.3C85.44 66.552 85.164 66.756 84.84 66.912ZM90.9818 70.962C90.8018 70.926 90.6038 70.884 90.3878 70.836V72.924C90.6158 72.996 90.8258 73.044 91.0178 73.068C91.2098 73.104 91.4018 73.122 91.5938 73.122C92.1338 73.122 92.6198 73.02 93.0518 72.816C93.4958 72.624 93.8618 72.354 94.1498 72.006C94.4498 71.67 94.6718 71.292 94.8158 70.872L98.7758 59.568H96.4718L94.2398 66.534L91.7018 59.568H89.1998L92.9258 69C92.7698 69.528 92.6198 69.936 92.4758 70.224C92.3318 70.524 92.1818 70.728 92.0258 70.836C91.8818 70.956 91.6958 71.016 91.4678 71.016C91.3358 71.016 91.1738 70.998 90.9818 70.962ZM110.307 69H112.719V63.114C112.719 62.646 112.677 62.196 112.593 61.764C112.509 61.32 112.359 60.924 112.143 60.576C111.927 60.216 111.627 59.934 111.243 59.73C110.859 59.514 110.361 59.406 109.749 59.406C109.041 59.406 108.387 59.574 107.787 59.91C107.187 60.246 106.713 60.714 106.365 61.314V55.86H103.953V69H106.365V63.492C106.485 63.108 106.671 62.772 106.923 62.484C107.187 62.184 107.481 61.95 107.805 61.782C108.129 61.614 108.435 61.53 108.723 61.53C109.215 61.53 109.599 61.71 109.875 62.07C110.163 62.43 110.307 62.976 110.307 63.708V69ZM117.139 68.802C117.751 69.054 118.435 69.18 119.191 69.18C119.887 69.18 120.523 69.078 121.099 68.874C121.675 68.658 122.173 68.364 122.593 67.992C123.025 67.62 123.355 67.194 123.583 66.714L121.513 66.138C121.357 66.522 121.063 66.834 120.631 67.074C120.211 67.302 119.761 67.416 119.281 67.416C118.861 67.416 118.465 67.326 118.093 67.146C117.733 66.954 117.433 66.678 117.193 66.318C116.965 65.958 116.827 65.538 116.779 65.058H124.069C124.081 64.962 124.093 64.842 124.105 64.698C124.117 64.542 124.123 64.392 124.123 64.248C124.123 63.396 123.925 62.604 123.529 61.872C123.145 61.128 122.587 60.534 121.855 60.09C121.123 59.634 120.241 59.406 119.209 59.406C118.189 59.406 117.301 59.634 116.545 60.09C115.801 60.534 115.225 61.128 114.817 61.872C114.421 62.616 114.223 63.438 114.223 64.338C114.223 64.986 114.337 65.604 114.565 66.192C114.805 66.768 115.141 67.284 115.573 67.74C116.005 68.184 116.527 68.538 117.139 68.802ZM121.657 63.528H116.725C116.773 63.048 116.905 62.634 117.121 62.286C117.349 61.926 117.637 61.65 117.985 61.458C118.345 61.254 118.741 61.152 119.173 61.152C119.617 61.152 120.019 61.254 120.379 61.458C120.739 61.65 121.027 61.926 121.243 62.286C121.471 62.634 121.609 63.048 121.657 63.528ZM125.448 64.608C125.112 65.064 124.944 65.598 124.944 66.21C124.944 66.774 125.082 67.284 125.358 67.74C125.646 68.184 126.036 68.538 126.528 68.802C127.032 69.054 127.596 69.18 128.22 69.18C128.856 69.18 129.48 69.036 130.092 68.748C130.704 68.46 131.214 68.052 131.622 67.524L131.676 68.01C131.736 68.322 131.886 68.586 132.126 68.802C132.378 69.018 132.744 69.126 133.224 69.126C133.344 69.126 133.488 69.114 133.656 69.09C133.836 69.066 134.034 69.036 134.25 69V67.038C134.046 67.014 133.896 66.948 133.8 66.84C133.716 66.732 133.674 66.552 133.674 66.3V63.294C133.674 62.046 133.296 61.086 132.54 60.414C131.796 59.742 130.752 59.406 129.408 59.406C128.688 59.406 127.998 59.508 127.338 59.712C126.69 59.916 126.054 60.222 125.43 60.63L126.204 62.214C126.72 61.866 127.212 61.602 127.68 61.422C128.148 61.242 128.64 61.152 129.156 61.152C129.852 61.152 130.374 61.314 130.722 61.638C131.082 61.962 131.262 62.424 131.262 63.024V63.528C130.962 63.396 130.608 63.3 130.2 63.24C129.792 63.18 129.39 63.15 128.994 63.15C128.202 63.15 127.5 63.276 126.888 63.528C126.276 63.78 125.796 64.14 125.448 64.608ZM131.136 66.264C131.052 66.408 130.944 66.552 130.812 66.696C130.596 66.9 130.314 67.074 129.966 67.218C129.618 67.35 129.264 67.416 128.904 67.416C128.556 67.416 128.256 67.35 128.004 67.218C127.752 67.086 127.56 66.912 127.428 66.696C127.296 66.48 127.23 66.252 127.23 66.012C127.23 65.568 127.428 65.214 127.824 64.95C128.232 64.674 128.748 64.536 129.372 64.536C129.672 64.536 129.99 64.572 130.326 64.644C130.662 64.704 130.974 64.794 131.262 64.914V65.868C131.262 65.988 131.22 66.12 131.136 66.264ZM138.322 55.86H135.91V66.822C135.91 67.566 136.114 68.142 136.522 68.55C136.942 68.946 137.53 69.144 138.286 69.144C138.634 69.144 139.024 69.102 139.456 69.018C139.888 68.934 140.266 68.814 140.59 68.658L140.266 66.822C140.11 66.894 139.93 66.954 139.726 67.002C139.522 67.05 139.324 67.074 139.132 67.074C138.88 67.074 138.682 67.002 138.538 66.858C138.394 66.702 138.322 66.408 138.322 65.976V55.86ZM146.45 68.802C146.738 68.694 146.984 68.598 147.188 68.514L146.702 66.606C146.558 66.666 146.366 66.738 146.126 66.822C145.886 66.906 145.64 66.948 145.388 66.948C145.136 66.948 144.926 66.876 144.758 66.732C144.59 66.588 144.5 66.354 144.488 66.03V61.422H146.468V59.568H144.488V56.508H142.076V59.568H140.834V61.422H142.076V66.84C142.076 67.392 142.184 67.842 142.4 68.19C142.628 68.526 142.928 68.772 143.3 68.928C143.672 69.084 144.08 69.162 144.524 69.162C144.86 69.162 145.19 69.126 145.514 69.054C145.85 68.994 146.162 68.91 146.45 68.802ZM154.798 69H157.21V63.114C157.21 62.646 157.168 62.196 157.084 61.764C157 61.32 156.85 60.924 156.634 60.576C156.418 60.216 156.118 59.934 155.734 59.73C155.35 59.514 154.852 59.406 154.24 59.406C153.532 59.406 152.878 59.574 152.278 59.91C151.678 60.246 151.204 60.714 150.856 61.314V55.86H148.444V69H150.856V63.492C150.976 63.108 151.162 62.772 151.414 62.484C151.678 62.184 151.972 61.95 152.296 61.782C152.62 61.614 152.926 61.53 153.214 61.53C153.706 61.53 154.09 61.71 154.366 62.07C154.654 62.43 154.798 62.976 154.798 63.708V69ZM166.025 55.86H163.613V66.822C163.613 67.566 163.817 68.142 164.225 68.55C164.645 68.946 165.233 69.144 165.989 69.144C166.337 69.144 166.727 69.102 167.159 69.018C167.591 68.934 167.969 68.814 168.293 68.658L167.969 66.822C167.813 66.894 167.633 66.954 167.429 67.002C167.225 67.05 167.027 67.074 166.835 67.074C166.583 67.074 166.385 67.002 166.241 66.858C166.097 66.702 166.025 66.408 166.025 65.976V55.86ZM169.2 64.608C168.864 65.064 168.696 65.598 168.696 66.21C168.696 66.774 168.834 67.284 169.11 67.74C169.398 68.184 169.788 68.538 170.28 68.802C170.784 69.054 171.348 69.18 171.972 69.18C172.608 69.18 173.232 69.036 173.844 68.748C174.456 68.46 174.966 68.052 175.374 67.524L175.428 68.01C175.488 68.322 175.638 68.586 175.878 68.802C176.13 69.018 176.496 69.126 176.976 69.126C177.096 69.126 177.24 69.114 177.408 69.09C177.588 69.066 177.786 69.036 178.002 69V67.038C177.798 67.014 177.648 66.948 177.552 66.84C177.468 66.732 177.426 66.552 177.426 66.3V63.294C177.426 62.046 177.048 61.086 176.292 60.414C175.548 59.742 174.504 59.406 173.16 59.406C172.44 59.406 171.75 59.508 171.09 59.712C170.442 59.916 169.806 60.222 169.182 60.63L169.956 62.214C170.472 61.866 170.964 61.602 171.432 61.422C171.9 61.242 172.392 61.152 172.908 61.152C173.604 61.152 174.126 61.314 174.474 61.638C174.834 61.962 175.014 62.424 175.014 63.024V63.528C174.714 63.396 174.36 63.3 173.952 63.24C173.544 63.18 173.142 63.15 172.746 63.15C171.954 63.15 171.252 63.276 170.64 63.528C170.028 63.78 169.548 64.14 169.2 64.608ZM174.888 66.264C174.804 66.408 174.696 66.552 174.564 66.696C174.348 66.9 174.066 67.074 173.718 67.218C173.37 67.35 173.016 67.416 172.656 67.416C172.308 67.416 172.008 67.35 171.756 67.218C171.504 67.086 171.312 66.912 171.18 66.696C171.048 66.48 170.982 66.252 170.982 66.012C170.982 65.568 171.18 65.214 171.576 64.95C171.984 64.674 172.5 64.536 173.124 64.536C173.424 64.536 173.742 64.572 174.078 64.644C174.414 64.704 174.726 64.794 175.014 64.914V65.868C175.014 65.988 174.972 66.12 174.888 66.264ZM183.118 68.694C183.682 69.018 184.324 69.18 185.044 69.18C185.68 69.18 186.262 69.06 186.79 68.82C187.33 68.568 187.798 68.22 188.194 67.776C188.59 67.32 188.896 66.798 189.112 66.21C189.34 65.622 189.454 64.992 189.454 64.32C189.454 63.648 189.352 63.018 189.148 62.43C188.956 61.842 188.674 61.32 188.302 60.864C187.942 60.408 187.51 60.054 187.006 59.802C186.502 59.538 185.944 59.406 185.332 59.406C184.6 59.406 183.958 59.568 183.406 59.892C182.866 60.216 182.428 60.66 182.092 61.224V55.86H179.68V69H181.786V67.362C182.11 67.926 182.554 68.37 183.118 68.694ZM185.422 66.912C185.11 67.056 184.762 67.128 184.378 67.128C184.15 67.128 183.916 67.092 183.676 67.02C183.448 66.936 183.226 66.828 183.01 66.696C182.794 66.552 182.602 66.384 182.434 66.192C182.278 66 182.164 65.784 182.092 65.544V63.294C182.236 62.946 182.428 62.634 182.668 62.358C182.92 62.082 183.202 61.866 183.514 61.71C183.838 61.542 184.174 61.458 184.522 61.458C185.014 61.458 185.44 61.59 185.8 61.854C186.172 62.118 186.46 62.472 186.664 62.916C186.88 63.348 186.988 63.822 186.988 64.338C186.988 64.71 186.922 65.07 186.79 65.418C186.67 65.754 186.49 66.048 186.25 66.3C186.022 66.552 185.746 66.756 185.422 66.912ZM192.258 68.784C192.99 69.048 193.758 69.18 194.562 69.18C195.714 69.18 196.632 68.916 197.316 68.388C198 67.86 198.342 67.128 198.342 66.192C198.342 65.616 198.21 65.166 197.946 64.842C197.682 64.506 197.286 64.224 196.758 63.996C196.242 63.768 195.606 63.546 194.85 63.33C194.478 63.21 194.16 63.102 193.896 63.006C193.644 62.91 193.452 62.802 193.32 62.682C193.2 62.55 193.14 62.37 193.14 62.142C193.14 61.89 193.206 61.698 193.338 61.566C193.482 61.422 193.662 61.32 193.878 61.26C194.106 61.2 194.346 61.17 194.598 61.17C195.042 61.17 195.48 61.26 195.912 61.44C196.344 61.608 196.8 61.878 197.28 62.25L198.252 60.72C197.76 60.252 197.214 59.916 196.614 59.712C196.014 59.496 195.378 59.388 194.706 59.388C193.938 59.388 193.266 59.514 192.69 59.766C192.126 60.018 191.682 60.372 191.358 60.828C191.046 61.272 190.89 61.806 190.89 62.43C190.89 62.946 191.004 63.372 191.232 63.708C191.472 64.032 191.826 64.302 192.294 64.518C192.762 64.734 193.344 64.956 194.04 65.184C194.46 65.304 194.814 65.412 195.102 65.508C195.402 65.604 195.63 65.718 195.786 65.85C195.942 65.97 196.02 66.144 196.02 66.372C196.02 66.708 195.876 66.96 195.588 67.128C195.312 67.296 194.94 67.38 194.472 67.38C193.968 67.38 193.44 67.272 192.888 67.056C192.348 66.84 191.796 66.504 191.232 66.048L190.368 67.614C190.896 68.13 191.526 68.52 192.258 68.784Z" fill="#003D84"/>
</svg>