<svg width="668" height="106" viewBox="0 0 668 106" fill="none" xmlns="http://www.w3.org/2000/svg">
<path d="M549.413 13.605C551.545 13.5749 564.14 181.198 575.186 57.4297C575.754 51.0185 584.682 67.5029 589.914 67.5431C594.884 67.5832 656.341 67.5932 667.969 67.5431" stroke="#AEE1F7" stroke-opacity="0.37" stroke-width="6" stroke-miterlimit="10"/>
<path d="M360.901 99.8096C362.235 99.8698 366.285 53.2458 372.683 53.0953C374.324 53.0552 375.981 57.4196 379.31 66.0983C381.841 72.7001 381.611 77.6063 382.992 77.6564C384.633 77.7066 383.145 70.9242 389.619 67.0615C396.508 62.9479 427.221 65.416 430.12 64.1719C436.809 61.3024 434.109 52.2124 435.275 52.1322C437.254 51.9917 441.994 78.1982 444.848 78.138C448.667 78.0578 447.302 30.6713 452.211 30.4606C453.791 30.3904 464.5 82.7934 461.784 58.8744C463.257 71.8774 478.966 57.3394 481.666 58.8744C484.873 60.6904 485.057 63.5599 487.557 63.6903C489.306 63.7806 491.055 62.4864 494.921 57.9113C501.027 50.6774 502.714 46.6942 504.494 46.8347C506.703 47.0052 506.841 61.6235 511.858 63.9211C517.519 66.5096 525.113 63.9211 529.531 63.9211C537.401 63.9211 536.71 72.8205 538.245 72.8506C542.141 72.9208 545.01 13.6852 549.413 13.615" stroke="#AEE1F7" stroke-opacity="0.37" stroke-width="6" stroke-miterlimit="10"/>
<path d="M270.327 85.3618C273.809 85.3718 278.427 48.7709 279.593 48.8412C280.176 48.8713 276.739 57.8007 283.581 61.7638C285.545 62.8976 288.337 63.63 308.235 63.7303C316.902 63.7705 318.789 62.5665 321.873 63.6902C329.605 66.5095 329.298 75.8303 330.709 75.73C332.075 75.6397 330.111 67.1817 335.128 65.6166C336.861 65.0748 350.699 65.9075 352.064 66.0981C361.76 67.4225 359.781 99.7593 360.901 99.8095" stroke="#AEE1F7" stroke-opacity="0.37" stroke-width="6" stroke-miterlimit="10"/>
<path d="M164.288 102.217C167.479 102.197 170.379 54.4899 173.125 54.54C174.859 54.5701 174.659 73.4224 179.752 73.8036C182.192 73.9842 182.284 69.6399 188.589 66.5798C195.492 63.2388 227.785 63.0281 230.562 64.1718C236.484 66.5999 235.456 73.8137 236.453 73.8036C237.895 73.7936 237.987 58.9947 240.135 58.8743C242.406 58.7439 244.83 75.2384 248.235 75.2484C253.436 75.2584 256.105 36.7011 260.017 36.7212C264.42 36.7413 266.307 85.3518 270.327 85.3618" stroke="#AEE1F7" stroke-opacity="0.37" stroke-width="6" stroke-miterlimit="10"/>
<path d="M150.297 3.01001C155.421 2.98995 159.686 102.248 164.288 102.218" stroke="#AEE1F7" stroke-opacity="0.37" stroke-width="6" stroke-miterlimit="10"/>
<path d="M135.57 81.0276C139.697 81.1279 145.756 3.02004 150.297 3.01001" stroke="#AEE1F7" stroke-opacity="0.37" stroke-width="6" stroke-miterlimit="10"/>
<path d="M0.199463 64.0315C4.24953 63.9111 43.0013 64.3927 52.344 63.9111C58.2964 63.6101 63.2516 61.443 63.3897 61.2724C63.3897 61.2624 63.451 61.1821 63.5431 61.1821C64.0954 61.1922 64.2488 65.4462 65.4147 65.2255C67.1636 64.8944 70.7381 64.2824 73.254 65.4964C73.3154 65.5265 73.3768 65.5566 73.4228 65.5867C75.9694 67.1217 74.7421 69.62 77.3962 73.3222C80.9706 78.2986 97.3243 57.7909 103.906 62.2456C107.802 64.8844 105.777 68.105 110.533 70.4327C116.608 73.4125 123.558 69.931 129.679 72.8406C135.37 75.5496 134.481 80.9976 135.57 81.0277" stroke="#AEE1F7" stroke-opacity="0.37" stroke-width="6" stroke-miterlimit="10"/>
</svg>