<svg width="40" height="46" viewBox="0 0 40 46" fill="none" xmlns="http://www.w3.org/2000/svg">
<path d="M10.0038 13.9925C10.0038 13.6467 10.1354 13.315 10.3698 13.0704C10.6042 12.8259 10.9221 12.6885 11.2536 12.6885H18.7527C19.0841 12.6885 19.402 12.8259 19.6364 13.0704C19.8708 13.315 20.0025 13.6467 20.0025 13.9925C20.0025 14.3384 19.8708 14.6701 19.6364 14.9147C19.402 15.1592 19.0841 15.2966 18.7527 15.2966H11.2536C10.9221 15.2966 10.6042 15.1592 10.3698 14.9147C10.1354 14.6701 10.0038 14.3384 10.0038 13.9925Z" fill="white"/>
<path d="M11.2536 17.9048C10.9221 17.9048 10.6042 18.0422 10.3698 18.2867C10.1354 18.5313 10.0038 18.863 10.0038 19.2089C10.0038 19.5547 10.1354 19.8864 10.3698 20.131C10.6042 20.3755 10.9221 20.5129 11.2536 20.5129H16.253C16.5845 20.5129 16.9024 20.3755 17.1368 20.131C17.3711 19.8864 17.5028 19.5547 17.5028 19.2089C17.5028 18.863 17.3711 18.5313 17.1368 18.2867C16.9024 18.0422 16.5845 17.9048 16.253 17.9048H11.2536Z" fill="white"/>
<path d="M15.0032 0.951661C12.4011 0.950747 9.8436 1.65618 7.58192 2.99865C5.32024 4.34111 3.43221 6.27442 2.10335 8.60861C0.774485 10.9428 0.0505052 13.5976 0.0025481 16.312C-0.045409 19.0265 0.584306 21.7073 1.82982 24.091L0.0550433 30.5852C-0.00740561 30.8133 -0.00906933 31.0548 0.0502315 31.2837C0.109532 31.5127 0.227552 31.7204 0.391589 31.8846C0.555626 32.0488 0.759468 32.1632 0.981178 32.2155C1.20289 32.2678 1.43407 32.256 1.64984 32.1814L7.4941 30.1497C9.486 31.3507 11.716 32.0574 14.0116 32.2153C16.3071 32.3732 18.6068 31.978 20.7325 31.0603C22.8583 30.1425 24.7532 28.7268 26.2707 26.9227C27.7882 25.1186 28.8876 22.9744 29.4838 20.6561C30.08 18.3377 30.1571 15.9073 29.7091 13.5529C29.2611 11.1985 28.3 8.98321 26.9001 7.07837C25.5002 5.17353 23.6992 3.63022 21.6362 2.56783C19.5733 1.50545 17.3037 0.952463 15.0032 0.951661ZM2.50473 16.6004C2.50514 13.707 3.42783 10.8959 5.12752 8.60959C6.82721 6.32333 9.20738 4.6918 11.8933 3.97185C14.5792 3.2519 17.4184 3.48443 19.9637 4.63283C22.5091 5.78123 24.6161 7.78027 25.9531 10.3152C27.2901 12.8502 27.7811 15.7771 27.3488 18.6352C26.9165 21.4933 25.5855 24.1202 23.5653 26.1024C21.5451 28.0845 18.9504 29.3094 16.1898 29.5841C13.4292 29.8588 10.6594 29.1678 8.3165 27.6198C8.15978 27.5161 7.98291 27.4502 7.79872 27.4267C7.61453 27.4033 7.42765 27.4229 7.25164 27.4842L3.10716 28.9265L4.382 24.2814C4.42845 24.1103 4.44088 23.9311 4.41852 23.7549C4.39617 23.5786 4.33951 23.409 4.25201 23.2564C3.10431 21.243 2.50052 18.943 2.50473 16.6004Z" fill="white"/>
<path d="M25.6918 37.327L19.6876 34.1972C20.7874 33.8764 21.8448 33.4487 22.8447 32.9244L26.2517 34.7032L37.5003 28.8349V27.0327C37.5003 26.3409 37.2369 25.6776 36.7682 25.1884C36.2994 24.6993 35.6636 24.4245 35.0006 24.4245H30.8162C31.1986 23.5899 31.5186 22.7162 31.776 21.8164H35.0006C36.3265 21.8164 37.5981 22.366 38.5357 23.3442C39.4733 24.3225 40 25.6492 40 27.0327V40.0733C40 41.4568 39.4733 42.7835 38.5357 43.7618C37.5981 44.74 36.3265 45.2896 35.0006 45.2896H17.5028C16.1769 45.2896 14.9053 44.74 13.9677 43.7618C13.0302 42.7835 12.5035 41.4568 12.5035 40.0733V34.6745C13.3209 34.7945 14.1533 34.8571 15.0031 34.8571V40.0733C15.0031 40.765 15.2665 41.4284 15.7353 41.9175C16.2041 42.4067 16.8399 42.6814 17.5028 42.6814H35.0006C35.6636 42.6814 36.2994 42.4067 36.7682 41.9175C37.2369 41.4284 37.5003 40.765 37.5003 40.0733V31.7508L26.8117 37.327C26.6379 37.4178 26.4461 37.4651 26.2517 37.4651C26.0573 37.4651 25.8656 37.4178 25.6918 37.327Z" fill="white"/>
</svg>