<svg width="30" height="30" viewBox="0 0 40 39" fill="none" xmlns="http://www.w3.org/2000/svg">
<path d="M20.0022 1.67339e-06C8.95096 -0.0044671 0 8.94202 0 19.9844C0 28.7163 5.59937 36.139 13.3974 38.8649C14.4475 39.1286 14.2867 38.3823 14.2867 37.8729V34.4096C8.22255 35.1201 7.97676 31.1071 7.5701 30.4368C6.74785 29.0336 4.80393 28.6761 5.38487 28.0058C6.76572 27.2953 8.17339 28.1846 9.80449 30.5932C10.9842 32.3405 13.2857 32.0456 14.452 31.7551C14.7067 30.705 15.2519 29.7665 16.0027 29.0381C9.71958 27.912 7.10088 24.0778 7.10088 19.5196C7.10088 17.3076 7.82929 15.2743 9.2593 13.6342C8.34767 10.9306 9.34421 8.6158 9.47827 8.2717C12.0746 8.03933 14.7738 10.1307 14.9838 10.2961C16.4585 9.89834 18.1432 9.6883 20.029 9.6883C21.9238 9.6883 23.613 9.90727 25.1011 10.3095C25.6061 9.92515 28.1086 8.1287 30.5217 8.34767C30.6513 8.69177 31.6255 10.953 30.7675 13.6208C32.2154 15.2653 32.9527 17.3165 32.9527 19.533C32.9527 24.1001 30.3162 27.9388 24.0152 29.047C24.5549 29.5778 24.9834 30.2108 25.2757 30.909C25.5681 31.6072 25.7184 32.3567 25.7178 33.1136V38.141C25.7535 38.5432 25.7178 38.9409 26.3881 38.9409C34.3023 36.273 40 28.7968 40 19.9888C40 8.94202 31.0446 1.67339e-06 20.0022 1.67339e-06Z" fill="#003D84"/>
</svg>