<svg width="40" height="30" viewBox="0 0 40 31" fill="none" xmlns="http://www.w3.org/2000/svg">
<path d="M33.8626 2.52921C31.2689 1.33889 28.532 0.48934 25.7202 0.00173652C25.6947 -0.00255378 25.6685 0.00115161 25.6452 0.0123434C25.6219 0.0235351 25.6027 0.0416635 25.5902 0.0642358C25.2377 0.689229 24.8477 1.50672 24.5752 2.14671C21.5442 1.68674 18.4612 1.68674 15.4303 2.14671C15.1263 1.43377 14.7824 0.738511 14.4003 0.0642358C14.3874 0.0419107 14.3682 0.0239912 14.345 0.0128354C14.3218 0.00167961 14.2957 -0.00218963 14.2703 0.00173652C11.4578 0.486731 8.72033 1.33672 6.12786 2.52921C6.10567 2.53768 6.08712 2.55358 6.07536 2.57421C0.890413 10.3216 -0.532072 17.879 0.165421 25.3415C0.16792 25.3765 0.19042 25.4115 0.21792 25.434C3.2372 27.6705 6.61433 29.3781 10.2053 30.4839C10.2307 30.4919 10.2579 30.4916 10.2831 30.4831C10.3083 30.4745 10.3301 30.4582 10.3453 30.4364C11.1153 29.3864 11.8003 28.2789 12.3903 27.114C12.4026 27.09 12.4068 27.0626 12.4023 27.036C12.3978 27.0095 12.3848 26.9851 12.3653 26.9665C12.3524 26.9543 12.337 26.9449 12.3203 26.939C11.2432 26.525 10.2001 26.0277 9.20033 25.4515C9.1724 25.4356 9.15164 25.4097 9.14233 25.379C9.13302 25.3483 9.13588 25.3151 9.15033 25.2865C9.15883 25.2679 9.17169 25.2516 9.18783 25.239C9.39782 25.0815 9.60782 24.9165 9.80782 24.7515C9.82549 24.7373 9.84668 24.7281 9.86914 24.7251C9.8916 24.722 9.91448 24.7251 9.93532 24.734C16.4827 27.7239 23.5702 27.7239 30.0376 24.734C30.0592 24.7246 30.0829 24.7213 30.1063 24.7244C30.1296 24.7275 30.1517 24.7368 30.1701 24.7515C30.3701 24.9165 30.5801 25.0815 30.7901 25.239C30.8071 25.2514 30.8208 25.2679 30.8299 25.2869C30.839 25.3059 30.8432 25.3269 30.8422 25.3479C30.8412 25.369 30.8351 25.3894 30.8242 25.4075C30.8134 25.4256 30.7982 25.4407 30.7801 25.4515C29.7827 26.0329 28.7382 26.5297 27.6576 26.9365C27.6404 26.9427 27.6247 26.9526 27.6118 26.9656C27.5988 26.9786 27.5889 26.9942 27.5826 27.0115C27.5769 27.0282 27.5745 27.0459 27.5758 27.0635C27.5771 27.0811 27.582 27.0983 27.5901 27.114C28.1901 28.2764 28.8776 29.3864 29.6326 30.4364C29.6479 30.4582 29.6697 30.4745 29.6948 30.4831C29.72 30.4916 29.7473 30.4919 29.7726 30.4839C33.3696 29.3815 36.7522 27.6737 39.775 25.434C39.7901 25.4235 39.8027 25.4097 39.8118 25.3937C39.8209 25.3777 39.8263 25.3598 39.8275 25.3415C40.6625 16.7141 38.43 9.21914 33.9126 2.57671C33.908 2.56574 33.9012 2.55584 33.8926 2.54766C33.884 2.53948 33.8738 2.53319 33.8626 2.52921ZM13.3678 20.7965C11.3953 20.7965 9.77282 18.9865 9.77282 16.7666C9.77282 14.5441 11.3653 12.7341 13.3678 12.7341C15.3853 12.7341 16.9927 14.5591 16.9627 16.7666C16.9627 18.9865 15.3703 20.7965 13.3678 20.7965ZM26.6576 20.7965C24.6877 20.7965 23.0627 18.9865 23.0627 16.7666C23.0627 14.5441 24.6552 12.7341 26.6576 12.7341C28.6751 12.7341 30.2851 14.5591 30.2526 16.7666C30.2526 18.9865 28.6751 20.7965 26.6576 20.7965Z" fill="#003D84"/>
</svg>