<?xml version="1.0" encoding="utf-8"?>
<svg version="1.1" id="bene-beat" xmlns="http://www.w3.org/2000/svg" xmlns:xlink="http://www.w3.org/1999/xlink" x="0px" y="0px"
	width="668" height="106" viewBox="0 0 668 106" style="enable-background:new 0 0 668 106;" xml:space="preserve">
<style type="text/css">
	.st0{fill:none;stroke:#AEE1F7;stroke-width:6;stroke-miterlimit:10;stroke-opacity:0.37;}
</style>
<path class="st0" d="M549.3,13.6c2.1,0,14.7,167.6,25.8,43.8c0.6-6.4,9.5,10.1,14.7,10.1c5,0,66.4,0.1,78.1,0 M360.8,99.8
	c1.3,0.1,5.4-46.6,11.8-46.7c1.6,0,3.3,4.3,6.6,13c2.5,6.6,2.3,11.5,3.7,11.6c1.6,0.1,0.2-6.7,6.6-10.6c6.9-4.1,37.6-1.6,40.5-2.9
	c6.7-2.9,4-12,5.2-12c2-0.1,6.7,26.1,9.6,26c3.8-0.1,2.5-47.5,7.4-47.7c1.6-0.1,5.9,25.7,9.6,28.4s17.2-1.5,19.9,0
	c3.2,1.8,3.4,4.7,5.9,4.8c1.7,0.1,3.5-1.2,7.4-5.8c6.1-7.2,7.8-11.2,9.6-11.1c2.2,0.2,2.3,14.8,7.4,17.1c5.7,2.6,13.3,0,17.7,0
	c7.9,0,7.2,8.9,8.7,8.9c3.9,0.1,6.8-59.2,11.2-59.2 M270.2,85.4c3.5,0,8.1-36.6,9.3-36.5c0.6,0-2.9,9,4,12.9c2,1.1,4.8,1.9,24.7,2
	c8.7,0,10.6-1.2,13.6,0c7.7,2.8,7.4,12.1,8.8,12c1.4-0.1-0.6-8.5,4.4-10.1c1.7-0.5,15.6,0.3,16.9,0.5c9.7,1.3,7.7,33.7,8.8,33.7
	 M164.2,102.2c3.2,0,6.1-47.7,8.8-47.7c1.7,0,1.5,18.9,6.6,19.3c2.4,0.2,2.5-4.2,8.8-7.2c6.9-3.3,39.2-3.6,42-2.4
	c5.9,2.4,4.9,9.6,5.9,9.6c1.4,0,1.5-14.8,3.7-14.9c2.3-0.1,4.7,16.4,8.1,16.4c5.2,0,7.9-38.5,11.8-38.5c4.4,0,6.3,48.6,10.3,48.6
	 M150.2,3c5.1,0,9.4,99.2,14,99.2 M135.5,81c4.1,0.1,10.2-78,14.7-78 M0.1,67.6c4.1-0.1,42.8,0.3,52.1-0.1c6-0.2,10.9-1.9,11-2.1
	c0,0,0.1-0.1,0.2-0.1c0.6,0,0.7,3.4,1.9,3.2c1.7-0.3,5.3-0.7,7.8,0.2c0.1,0,0.1,0,0.2,0.1c2.5,1.2,1.3,3.2,4,6.1
	c3.6,3.9,19.9-12.2,26.5-8.7c3.9,2.1,1.9,4.6,6.6,6.4c6.1,2.3,13-0.4,19.1,1.9c5.7,2.1,4.8,6.4,5.9,6.4"/>
</svg>
