<svg width="30" height="27" viewBox="0 0 30 27" fill="none" xmlns="http://www.w3.org/2000/svg">
<path d="M0 8.22333V21.1665C0 22.5501 0.526784 23.8771 1.46447 24.8554C2.40215 25.8338 3.67392 26.3834 5 26.3834H25C26.3261 26.3834 27.5979 25.8338 28.5355 24.8554C29.4732 23.8771 30 22.5501 30 21.1665V5.51575C30 4.13213 29.4732 2.80519 28.5355 1.82683C27.5979 0.848466 26.3261 0.298828 25 0.298828H5C3.67392 0.298828 2.40215 0.848466 1.46447 1.82683C0.526784 2.80519 0 4.13213 0 5.51575V8.22333ZM5 2.90729H25C25.663 2.90729 26.2989 3.18211 26.7678 3.67129C27.2366 4.16047 27.5 4.82394 27.5 5.51575V7.44601L15 14.468L2.5 7.44601V5.51575C2.5 4.82394 2.76339 4.16047 3.23223 3.67129C3.70107 3.18211 4.33696 2.90729 5 2.90729ZM2.5 10.4092L14.4075 17.0973C14.5896 17.1996 14.7932 17.2531 15 17.2531C15.2068 17.2531 15.4104 17.1996 15.5925 17.0973L27.5 10.4092V21.1665C27.5 21.8583 27.2366 22.5218 26.7678 23.011C26.2989 23.5001 25.663 23.775 25 23.775H5C4.33696 23.775 3.70107 23.5001 3.23223 23.011C2.76339 22.5218 2.5 21.8583 2.5 21.1665V10.4092Z" fill="white"/>
</svg>