<svg width="26" height="31" viewBox="0 0 26 31" fill="none" xmlns="http://www.w3.org/2000/svg">
<path fill-rule="evenodd" clip-rule="evenodd" d="M6.85783 30.7303C5.93189 30.3945 4.96531 29.5464 4.48582 28.649C4.05893 27.8505 4.05893 27.8495 4.05893 17.9758C4.05893 8.22077 4.06386 8.09202 4.46873 7.34155C4.99189 6.37212 5.76839 5.63683 6.66394 5.26274C7.64115 4.85465 21.6647 4.82047 22.6275 5.22381C23.531 5.60247 24.4347 6.43213 24.9085 7.318C25.3214 8.08974 25.3284 8.23615 25.389 17.3112C25.4313 23.6627 25.3838 26.8264 25.2359 27.5041C24.9359 28.8801 24.0967 29.9616 22.8949 30.5212L21.9093 30.98L14.6932 30.9674C9.644 30.9587 7.29117 30.8875 6.85783 30.7303ZM1.54962 26.4439C0.0127831 25.3303 0.0710826 25.75 0.0710826 15.792C0.0710826 6.98093 0.072032 6.95928 0.514303 5.86376C1.39714 3.67633 3.14476 2.01853 5.26573 1.35655C6.36504 1.01359 7.0219 0.97998 12.6303 0.97998C17.4273 0.97998 18.9264 1.03771 19.4135 1.24128C19.978 1.47713 21.2446 2.76426 21.2446 3.10189C21.2446 3.17709 17.8907 3.26445 13.7912 3.29616C5.49417 3.36016 5.67173 3.33433 4.16109 4.69912C3.72414 5.09373 3.18065 5.76426 2.95335 6.18925C2.54715 6.9477 2.53804 7.14367 2.4448 16.9927L2.34985 27.0237L1.54962 26.4439Z" fill="#003D84"/>
</svg>
