<svg width="23" height="17" viewBox="0 0 23 17" fill="none" xmlns="http://www.w3.org/2000/svg">
<path d="M3.4163 8.58788C2.63641 7.80568 1.37008 7.8038 0.587878 8.5837C-0.194324 9.36359 -0.196195 10.6299 0.583698 11.4121L3.4163 8.58788ZM21.9021 3.6613C22.6802 2.87737 22.6756 1.61105 21.8916 0.83289C21.1077 0.0547343 19.8414 0.0594161 19.0632 0.843347L21.9021 3.6613ZM8.65972 14.163L7.24029 12.754L8.65972 14.163ZM0.583698 11.4121L4.73718 15.5779L7.56979 12.7537L3.4163 8.58788L0.583698 11.4121ZM10.0792 15.572L21.9021 3.6613L19.0632 0.843347L7.24029 12.754L10.0792 15.572ZM4.73718 15.5779C6.21173 17.0568 8.60789 17.0542 10.0792 15.572L7.24029 12.754C7.33104 12.6626 7.47884 12.6624 7.56979 12.7537L4.73718 15.5779Z" fill="#003D84"/>
</svg>
