<svg width="23" height="17" viewBox="0 0 23 17" fill="none" xmlns="http://www.w3.org/2000/svg">
<path d="M3.4163 8.48094C2.63641 7.69874 1.37008 7.69687 0.587878 8.47676C-0.194324 9.25666 -0.196195 10.523 0.583698 11.3052L3.4163 8.48094ZM21.9021 3.55436C22.6802 2.77043 22.6756 1.50411 21.8916 0.725956C21.1077 -0.0521993 19.8414 -0.0475175 19.0632 0.736413L21.9021 3.55436ZM8.65972 14.0561L7.24029 12.6471L8.65972 14.0561ZM0.583698 11.3052L4.73718 15.471L7.56979 12.6467L3.4163 8.48094L0.583698 11.3052ZM10.0792 15.465L21.9021 3.55436L19.0632 0.736413L7.24029 12.6471L10.0792 15.465ZM4.73718 15.471C6.21173 16.9499 8.60789 16.9472 10.0792 15.465L7.24029 12.6471C7.33104 12.5557 7.47884 12.5555 7.56979 12.6467L4.73718 15.471Z" fill="#BF9119"/>
</svg>
