<svg width="65" height="115" viewBox="0 0 65 115" fill="none" xmlns="http://www.w3.org/2000/svg">
<path d="M33.2234 114.76C31.4634 114.76 30.0234 114.16 28.9034 112.96C27.7834 111.84 27.2234 110.44 27.2234 108.76V100.6C22.3434 100.28 17.9834 99.52 14.1434 98.32C10.3834 97.04 7.14344 95.64 4.42344 94.12C2.58344 93.08 1.42344 91.68 0.943438 89.92C0.543438 88.16 0.663438 86.48 1.30344 84.88C1.94344 83.28 3.02344 82.16 4.54344 81.52C6.06344 80.88 7.86344 81.16 9.94344 82.36C12.1834 83.64 15.1034 84.88 18.7034 86.08C22.3834 87.2 26.7834 87.76 31.9034 87.76C37.9034 87.76 42.2234 86.72 44.8634 84.64C47.5034 82.48 48.8234 79.8 48.8234 76.6C48.8234 73.96 47.9034 71.8 46.0634 70.12C44.2234 68.44 40.9434 67.08 36.2234 66.04L23.5034 63.28C9.02344 60.16 1.78344 52.56 1.78344 40.48C1.78344 33.76 4.06344 28.12 8.62344 23.56C13.2634 18.92 19.4634 16.12 27.2234 15.16V6.63999C27.2234 4.96 27.7834 3.56 28.9034 2.44C30.0234 1.23999 31.4634 0.639992 33.2234 0.639992C34.9034 0.639992 36.3034 1.23999 37.4234 2.44C38.6234 3.56 39.2234 4.96 39.2234 6.63999V15.04C42.4234 15.36 45.7834 16.12 49.3034 17.32C52.9034 18.52 56.0234 20.16 58.6634 22.24C60.1834 23.44 61.0634 24.84 61.3034 26.44C61.5434 27.96 61.2634 29.4 60.4634 30.76C59.7434 32.04 58.5834 32.92 56.9834 33.4C55.4634 33.8 53.6634 33.4 51.5834 32.2C49.2634 30.84 46.6634 29.76 43.7834 28.96C40.9034 28.08 37.4634 27.64 33.4634 27.64C28.3434 27.64 24.3034 28.8 21.3434 31.12C18.4634 33.36 17.0234 36.32 17.0234 40C17.0234 42.72 17.9034 44.92 19.6634 46.6C21.4234 48.2 24.4234 49.48 28.6634 50.44L41.7434 53.32C49.4234 55 55.0634 57.68 58.6634 61.36C62.2634 64.96 64.0634 69.72 64.0634 75.64C64.0634 82.36 61.7434 87.88 57.1034 92.2C52.5434 96.44 46.5834 99.12 39.2234 100.24V108.76C39.2234 110.44 38.6634 111.84 37.5434 112.96C36.4234 114.16 34.9834 114.76 33.2234 114.76Z" fill="#003D84" fill-opacity="0.15"/>
</svg>
