<svg width="35" height="22" viewBox="0 0 35 22" fill="none" xmlns="http://www.w3.org/2000/svg">
<path d="M24.1694 2.31844C24.5439 1.85091 24.8702 1.35724 25.2809 0.949026C26.2542 -0.0187115 27.5718 -0.253985 28.6984 0.278397C29.9311 0.861553 30.6032 2.22192 30.3604 3.65517C30.1296 5.01855 29.4243 6.13057 28.5023 7.12345C27.5562 8.14296 26.4472 8.96541 25.306 9.74865C24.9883 9.96633 24.6706 10.184 24.3448 10.3891C24.283 10.4278 24.1598 10.4449 24.1055 10.4097C22.5923 9.41686 21.0897 8.4079 19.855 7.06211C18.9572 6.08231 18.2825 4.98236 18.0508 3.64713C17.7471 1.89666 18.8345 0.301019 20.5387 0.0340743C21.3396 -0.0911033 22.0635 0.137635 22.72 0.597624C23.3308 1.02594 23.7637 1.60608 24.1246 2.24705C24.1442 2.28224 24.1669 2.31492 24.1694 2.31844Z" fill="white"/>
<path d="M26.3238 12.4129C27.7837 11.6448 28.8972 10.479 30.1314 9.46698C30.6035 9.07989 31.0956 8.71541 31.5968 8.36652C31.82 8.21169 32.0794 8.09656 32.3378 8.00758C32.7269 7.87386 33.0939 7.95228 33.4313 8.19761C33.5052 8.2514 33.6283 8.27905 33.7188 8.26246C34.5463 8.11064 35.1687 8.75211 34.959 9.57004C34.9042 9.78369 34.8027 9.99836 34.6745 10.1783C33.6861 11.5719 32.6842 12.9559 31.6903 14.3459C31.1534 15.0964 29.8189 16.5712 29 17C26.7825 18.1608 26.3866 18.4668 24 19.2273C22.8101 19.8798 20.5792 20.4771 19.2822 20.2192C17.9635 19.9568 16.668 19.5742 15.367 19.2273C14.1625 18.9061 12.9725 18.5255 11.76 18.2395C10.469 17.9343 9.20112 18.0756 7.98001 18.624C6.47587 19.2997 4.96117 19.9517 3.45703 20.6269C3.19964 20.7425 2.69556 21.177 2.5 21C2.2592 20.7818 2.29323 20.1136 2.1037 19.8532C1.04849 18.4033 0.343176 16.7987 0.0370185 15.0261C0.0214342 14.9356 0.0138934 14.8431 0.0093689 14.7516C-0.0293406 14.004 0.0244505 13.9176 0.707648 13.6169C1.53513 13.253 2.35808 12.8779 3.19059 12.5265C4.0985 12.143 4.87521 11.5719 5.6132 10.9314C6.62216 10.0562 7.77188 9.43833 9.07041 9.10955C10.7475 8.68475 12.4115 8.78881 14.0549 9.27896C14.6149 9.44587 15.1755 9.63489 15.7018 9.88575C17.8052 10.8887 20.0242 11.502 22.305 11.9218C23.1119 12.0701 23.9248 12.1932 24.7221 12.3843C25.1027 12.4753 25.4878 12.6462 25.8065 12.8719C26.3323 13.2434 26.3821 13.897 25.9352 14.3635C25.2882 15.0391 24.4617 15.2915 23.5508 15.1523C21.8546 14.8928 20.1665 14.5786 18.4713 14.3112C17.3196 14.1292 16.1804 14.2051 15.0855 14.637C14.9553 14.6882 14.8155 14.8195 14.7652 14.9471C14.6737 15.1784 14.907 15.4051 15.1327 15.3106C16.5016 14.735 17.8967 14.8451 19.3083 15.1035C20.7164 15.3614 22.1266 15.6183 23.5437 15.8138C24.6311 15.9641 25.6069 15.6278 26.3866 14.8426C27.0558 14.1689 27.0527 13.2545 26.4258 12.5341C26.3987 12.5019 26.3726 12.4702 26.3238 12.4129Z" fill="white"/>
</svg>