<svg width="26" height="29" viewBox="0 0 26 29" fill="none" xmlns="http://www.w3.org/2000/svg">
<path d="M1.44354 17.3076H7.22177V27.4195C7.22177 27.8026 7.37397 28.17 7.64487 28.441C7.91578 28.7119 8.28321 28.8641 8.66633 28.8641H17.3337C17.7168 28.8641 18.0842 28.7119 18.3551 28.441C18.626 28.17 18.7782 27.8026 18.7782 27.4195V17.3076H24.5565C24.8284 17.3071 25.0947 17.23 25.3248 17.085C25.5549 16.94 25.7395 16.7331 25.8573 16.488C25.9751 16.2429 26.0214 15.9695 25.9909 15.6992C25.9603 15.429 25.8542 15.1728 25.6847 14.9602L14.1282 0.514623C13.5778 -0.171541 12.4222 -0.171541 11.8718 0.514623L0.315344 14.9602C0.145809 15.1728 0.0396805 15.429 0.0091445 15.6992C-0.0213915 15.9695 0.0249029 16.2429 0.142712 16.488C0.260521 16.7331 0.445069 16.94 0.675166 17.085C0.905263 17.23 1.17158 17.3071 1.44354 17.3076Z" fill="#0000FF"/>
</svg>
