<svg width="263" height="210" viewBox="0 0 263 210" fill="none" xmlns="http://www.w3.org/2000/svg">
<path d="M144.213 24.5874C146.346 24.5261 158.941 366.068 169.987 113.882C170.554 100.819 179.483 134.407 184.714 134.489C189.685 134.571 251.141 134.591 262.77 134.489" stroke="#AEE1F7" stroke-opacity="0.37" stroke-width="6" stroke-miterlimit="10"/>
<path d="M-44.2987 200.234C-42.964 200.357 -38.914 105.358 -32.5167 105.052C-30.8752 104.97 -29.2183 113.863 -25.8893 131.546C-23.358 144.997 -23.5882 154.994 -22.2074 155.096C-20.5659 155.198 -22.054 141.379 -15.5801 133.508C-8.69187 125.127 22.0211 130.156 24.9206 127.621C31.6093 121.774 28.9093 103.253 30.0753 103.089C32.0543 102.803 36.7947 156.2 39.6481 156.077C43.4681 155.914 42.1027 59.3615 47.0119 58.9322C48.592 58.7891 59.3002 165.563 56.5848 116.827C58.0575 143.321 73.7669 113.699 76.4669 116.827C79.6732 120.527 79.8573 126.374 82.3579 126.639C84.1068 126.823 85.8557 124.186 89.7216 114.864C95.8274 100.125 97.515 92.009 99.2946 92.2952C101.504 92.6428 101.642 122.428 106.658 127.11C112.319 132.384 119.913 127.11 124.331 127.11C132.201 127.11 131.511 145.243 133.045 145.304C136.942 145.447 139.811 24.7515 144.213 24.6084" stroke="#AEE1F7" stroke-opacity="0.37" stroke-width="6" stroke-miterlimit="10"/>
</svg>