<?xml version="1.0" standalone="no"?>
<!DOCTYPE svg PUBLIC "-//W3C//DTD SVG 20010904//EN"
 "http://www.w3.org/TR/2001/REC-SVG-20010904/DTD/svg10.dtd">
<svg version="1.0" xmlns="http://www.w3.org/2000/svg"
 width="1280.000000pt" height="1056.000000pt" viewBox="0 0 1280.000000 1056.000000"
 preserveAspectRatio="xMidYMid meet">
<g transform="translate(0.000000,1056.000000) scale(0.100000,-0.100000)"
fill="#fff" stroke="none">
<path d="M2180 10548 c-479 -84 -985 -216 -1449 -379 -162 -57 -517 -199 -635
-254 l-99 -46 7 -64 c23 -221 224 -595 500 -925 317 -380 1062 -1024 1446
-1249 36 -22 72 -55 105 -99 69 -90 233 -261 311 -323 244 -194 529 -279 829
-249 224 23 318 24 376 5 132 -43 296 -147 657 -413 275 -204 357 -261 487
-340 373 -227 649 -275 837 -144 55 38 87 73 132 142 35 53 45 77 27 66 -11
-7 29 93 52 127 10 15 24 54 33 88 28 110 -2 206 -110 349 -123 164 -281 304
-580 514 -242 170 -311 209 -447 253 -65 21 -118 40 -119 43 0 3 116 27 258
55 156 30 273 58 297 71 54 28 78 69 65 115 l-9 34 21 -30 c63 -87 166 -146
328 -190 52 -15 133 -44 180 -65 133 -61 185 -79 270 -94 91 -16 130 -37 583
-312 l278 -169 101 -170 c143 -240 261 -422 362 -560 131 -179 150 -221 225
-519 55 -218 85 -290 169 -403 130 -174 298 -273 464 -273 63 0 80 4 125 30
29 17 68 46 88 65 49 50 47 84 -15 215 -55 117 -75 195 -115 450 -27 174 -66
380 -89 468 -10 34 -11 52 -4 52 6 0 45 -35 87 -77 122 -124 258 -346 340
-556 88 -222 203 -368 371 -468 145 -86 329 -121 452 -85 65 19 146 81 189
146 38 56 34 83 -23 165 -23 33 -58 85 -79 115 -42 62 -132 267 -125 284 2 6
5 4 5 -5 1 -20 24 -27 116 -35 79 -7 164 11 207 45 38 30 108 141 108 171 0
19 -23 56 -75 121 -61 77 -100 143 -210 359 -214 422 -258 488 -582 876 -120
143 -294 354 -388 470 -309 381 -379 440 -561 470 -95 15 -383 33 -551 34 -93
0 -108 3 -183 35 -236 101 -389 197 -669 420 -220 175 -277 215 -390 270 -189
94 -299 113 -701 125 -322 9 -326 10 -790 80 -74 11 -225 27 -335 35 -229 17
-299 27 -444 62 -160 38 -291 87 -466 173 -320 158 -584 355 -1004 750 -93 88
-173 159 -178 159 -4 -1 -33 -6 -63 -11z m-1300 -1618 c159 -224 407 -551 525
-695 138 -166 313 -341 395 -394 73 -47 72 -52 -2 -15 -237 120 -540 478 -945
1114 -130 206 -124 203 27 -10z m8835 -2798 c-5 -6 -99 45 -125 67 -14 11 9 2
52 -22 42 -23 75 -43 73 -45z"/>
<path d="M5170 7818 c0 -35 -29 -72 -77 -97 -13 -6 -101 -27 -195 -46 -95 -19
-184 -37 -198 -41 -20 -5 -6 -12 69 -35 52 -16 128 -47 169 -69 77 -42 290
-189 431 -298 176 -137 382 -161 766 -92 136 25 316 35 413 23 39 -5 72 -7 72
-4 0 3 -22 18 -48 32 -26 14 -163 92 -305 174 -250 144 -260 148 -345 162 -55
9 -127 30 -197 59 -60 26 -159 59 -220 75 -144 38 -242 86 -294 146 l-41 46 0
-35z"/>
<path d="M4554 5410 c-48 -7 -146 -63 -180 -103 -36 -43 -31 -85 25 -206 55
-120 78 -210 121 -487 28 -180 66 -376 89 -453 6 -19 9 -37 6 -39 -2 -2 -41
34 -87 79 -136 136 -239 303 -347 559 -72 173 -121 251 -216 345 -89 89 -167
141 -280 185 -85 32 -97 34 -210 35 -143 0 -171 -11 -264 -104 -92 -92 -90
-122 14 -266 31 -44 70 -105 85 -135 34 -67 81 -182 77 -187 -2 -1 -30 2 -63
8 -76 14 -172 5 -223 -21 -42 -21 -112 -105 -136 -164 -14 -32 -13 -36 16 -77
16 -24 54 -75 85 -114 35 -45 100 -160 181 -320 203 -403 268 -501 528 -810
89 -104 262 -314 385 -465 318 -391 401 -473 519 -515 69 -24 266 -44 516 -51
223 -6 232 -8 305 -36 214 -85 397 -199 687 -430 218 -174 323 -244 445 -293
176 -72 333 -95 653 -95 200 0 332 -13 670 -64 127 -20 295 -40 375 -46 445
-33 647 -82 955 -230 334 -161 588 -353 1078 -812 l104 -98 89 16 c626 107
1213 272 1814 509 226 90 423 177 422 188 0 5 -114 206 -253 448 l-254 440
-161 172 c-382 408 -956 900 -1311 1123 -70 44 -100 71 -152 137 -80 102 -258
281 -331 334 -271 196 -531 258 -901 214 -172 -21 -246 -13 -349 36 -123 57
-283 162 -545 357 -532 396 -793 540 -1038 577 -184 27 -356 -53 -453 -212
-20 -33 -34 -63 -31 -65 7 -8 -23 -96 -39 -114 -44 -52 -62 -163 -40 -251 19
-71 36 -103 119 -212 121 -161 279 -298 604 -526 208 -145 283 -187 415 -229
64 -20 118 -39 118 -42 0 -3 -114 -27 -253 -54 -138 -27 -271 -57 -294 -67
-53 -22 -86 -71 -77 -114 6 -30 6 -30 -26 10 -62 79 -163 132 -340 179 -47 13
-109 35 -137 50 -95 47 -203 86 -281 99 -42 8 -93 22 -112 32 -48 24 -421 247
-605 361 l-150 93 -54 93 c-152 260 -318 517 -432 668 -97 128 -135 222 -203
499 -50 203 -92 296 -185 413 -131 166 -334 269 -487 248z m-1468 -1026 c74
-44 97 -67 29 -28 -89 50 -110 64 -99 64 5 0 37 -16 70 -36z"/>
<path d="M6800 3440 c-41 -4 -131 -18 -200 -30 -145 -25 -350 -36 -432 -22
-32 5 -58 6 -58 3 1 -6 152 -93 477 -277 122 -69 153 -83 206 -88 70 -8 184
-44 258 -82 28 -14 103 -38 166 -55 151 -38 249 -85 302 -145 l41 -47 0 35 c0
39 35 83 80 100 14 5 104 25 200 44 96 19 182 38 190 41 8 3 -34 22 -95 42
-60 21 -137 54 -170 73 -71 43 -285 194 -405 286 -145 112 -307 147 -560 122z"/>
</g>
</svg>
