<svg width="200" height="259" viewBox="0 0 200 259" fill="#003D84" xmlns="http://www.w3.org/2000/svg">
<path d="M148.066 170.369C146.821 167.773 145.061 165.458 142.893 163.565C141.831 162.636 140.675 161.82 139.445 161.128C138.238 160.452 136.968 159.896 135.652 159.467C130.348 157.743 124.159 158.134 118.28 159.553C116.809 159.921 115.349 160.323 113.912 160.806C113.194 161.024 112.487 161.3 111.78 161.542C111.073 161.783 110.355 162.076 109.648 162.358C106.815 163.507 104.045 164.737 101.31 166.001C95.8502 168.547 90.5401 171.087 85.3795 173.001C80.6661 174.819 75.7458 176.046 70.7309 176.656C66.8811 177.122 62.9822 176.986 59.1741 176.254C56.7594 175.813 54.4433 174.943 52.3354 173.685C50.9274 172.754 50.347 171.961 50.5252 171.512C50.9217 170.472 54.1629 170.989 59.5361 170.449C62.7803 170.108 65.982 169.442 69.0931 168.461C73.2451 167.131 77.2642 165.417 81.0981 163.34C85.4772 161.042 90.201 158.128 95.603 155.008C98.3098 153.45 101.206 151.858 104.338 150.341C105.12 149.962 105.93 149.594 106.74 149.226C107.551 148.859 108.407 148.491 109.275 148.163C110.999 147.468 112.774 146.853 114.613 146.278C116.503 145.706 118.421 145.232 120.36 144.859C122.4 144.46 124.464 144.197 126.538 144.071C128.725 143.933 130.919 143.964 133.101 144.163C135.395 144.393 137.664 144.826 139.882 145.456C141.003 145.818 142.135 146.158 143.25 146.606C144.37 147.058 145.464 147.574 146.525 148.152C148.667 149.297 150.68 150.666 152.531 152.238C156.348 155.464 159.432 159.469 161.576 163.984V164.019" fill="#ffffff"/>
<path d="M153.542 165.064V165.024C151.535 160.174 148.784 155.666 145.388 151.663C135.53 140.145 121.522 132.987 106.413 131.745C101.874 131.406 97.3103 131.694 92.8503 132.601C88.3908 133.486 83.914 134.854 79.4028 136.216C74.8982 137.651 70.3236 138.858 65.6967 139.83C61.2737 140.694 56.7837 141.169 52.2779 141.25H49.1115C48.0655 141.215 47.0426 141.146 46.0254 141.095L44.5198 141.008L43.0371 140.847C42.0544 140.738 41.0889 140.641 40.1637 140.514L37.3765 140.054L36.0145 139.819L34.687 139.526L32.1009 138.951C31.2619 138.733 30.4401 138.486 29.6356 138.261C24.1422 136.704 18.8643 134.469 13.9238 131.607L12.4526 130.75C11.9929 130.457 11.5504 130.176 11.1194 129.865C10.2631 129.291 9.4643 128.75 8.74595 128.216C7.34373 127.101 6.16564 126.159 5.29787 125.297C3.57383 123.544 2.82675 122.423 3.13133 122.021C3.43591 121.619 4.74618 121.883 6.92421 122.762C8.02185 123.193 9.38384 123.682 10.947 124.343L13.4928 125.297L14.8835 125.825L16.3834 126.325C21.2998 128.031 26.3576 129.299 31.4975 130.112C32.2389 130.222 32.9917 130.354 33.7962 130.457L36.1524 130.71L37.3535 130.842L38.5833 130.911L41.0832 131.066C41.9337 131.066 42.8072 131.066 43.6577 131.095H44.9738L46.3013 131.043C47.1863 131.009 48.0885 130.986 48.9965 130.934L51.755 130.693C55.5848 130.299 59.3778 129.605 63.0992 128.618C66.9955 127.584 71.07 126.101 75.4835 124.486C80.227 122.66 85.0674 121.097 89.9827 119.803C92.7397 119.135 95.5364 118.644 98.3558 118.332C101.272 118.046 104.203 117.948 107.131 118.038C116.587 118.471 125.857 120.823 134.376 124.951C142.895 129.078 150.485 134.896 156.686 142.049C161.153 147.229 164.76 153.092 167.369 159.415V159.467" fill="#ffffff"/>
<path d="M160.14 154.077V154.025C157.576 147.514 155.054 141.227 152.215 135.377C151.87 134.641 151.508 133.917 151.14 133.204C150.772 132.492 150.416 131.773 150.042 131.072C149.267 129.687 148.531 128.279 147.715 126.963C146.899 125.647 146.083 124.343 145.25 123.067C144.842 122.418 144.376 121.837 143.945 121.222C143.514 120.607 143.077 119.992 142.6 119.429L141.221 117.705C140.75 117.13 140.25 116.619 139.773 116.079L139.049 115.269C138.802 115.01 138.543 114.769 138.29 114.516L136.773 113.016L135.181 111.642C134.911 111.412 134.653 111.177 134.382 110.958L133.555 110.338L131.894 109.091L130.17 107.941C125.424 105.073 120.278 102.927 114.901 101.574C109.498 100.214 103.993 99.2913 98.442 98.8154C92.9365 98.304 87.4139 98.0741 81.9946 97.8385C71.1677 97.3845 60.6165 96.7811 51.0711 94.5916C46.5659 93.5882 42.136 92.2728 37.8133 90.655C33.9836 89.1821 30.2437 87.4858 26.6127 85.5748C20.8695 82.4971 15.4747 78.8093 10.5217 74.5755C2.4762 67.5184 -0.586839 62.4095 0.0912833 61.7716C0.884341 60.9785 5.33811 64.645 13.9353 69.8746C19.1307 72.9948 24.5561 75.7151 30.1643 78.012C33.4399 79.2993 36.98 80.5464 40.7843 81.6383C44.7998 82.7524 48.8801 83.618 53.002 84.2301C61.6222 85.5576 71.3918 85.5576 82.2245 85.4714C87.6552 85.4714 93.3618 85.4197 99.3902 85.7357C105.71 86.0294 111.993 86.8639 118.171 88.2298C124.983 89.7335 131.525 92.2744 137.566 95.7639L139.865 97.2236C140.618 97.7465 141.359 98.2867 142.112 98.8269L143.261 99.6372C143.623 99.9188 143.974 100.212 144.33 100.511L146.462 102.287L148.468 104.189C148.801 104.511 149.14 104.827 149.468 105.154L150.41 106.16C151.031 106.838 151.675 107.51 152.284 108.2L154.042 110.326C154.646 111.027 155.192 111.769 155.726 112.504C156.26 113.24 156.847 113.97 157.347 114.728C158.37 116.24 159.404 117.757 160.329 119.326C161.254 120.895 162.162 122.458 163.065 124.044C163.496 124.837 163.904 125.641 164.329 126.44C164.754 127.239 165.162 128.049 165.547 128.86C168.742 135.331 171.426 141.968 174.024 148.56V148.617" fill="#ffffff"/>
<path d="M161.611 176.414H161.582C158.479 176.969 155.325 177.187 152.175 177.064C149.301 176.989 146.732 176.759 144.411 176.639C142.352 176.488 140.285 176.488 138.227 176.639C137.382 176.715 136.543 176.849 135.716 177.041C134.904 177.216 134.11 177.464 133.342 177.782C131.561 178.527 129.833 179.393 128.17 180.374L122.785 183.443C121.107 184.42 119.556 185.362 118.148 186.316C116.793 187.215 115.488 188.188 114.24 189.23C111.729 191.316 109.211 193.609 106.62 195.356C104.357 196.966 101.81 198.136 99.1143 198.804C97.363 199.252 95.5269 199.252 93.7756 198.804C92.5745 198.425 92.0515 197.867 92.0515 197.367C92.0515 196.867 92.6262 196.373 93.4652 195.81C94.6036 195.082 95.7046 194.298 96.7639 193.459C98.3513 192.154 99.7978 190.687 101.08 189.08C102.666 187.172 104.338 184.719 106.7 181.805C107.994 180.222 109.394 178.728 110.89 177.334C112.441 175.88 114.113 174.501 115.832 173.173C116.688 172.512 117.556 171.863 118.435 171.219L121.102 169.283C123.173 167.773 125.36 166.428 127.641 165.26C128.987 164.568 130.388 163.991 131.831 163.536C133.302 163.07 134.806 162.716 136.331 162.478C139.171 162.062 142.041 161.891 144.911 161.967C147.617 162.007 150.14 162.151 152.468 162.162C154.573 162.214 156.678 162.063 158.755 161.714" fill="#ffffff"/>
<path d="M167.972 143.043V142.985C167.024 121.471 157.606 101.206 141.773 86.6092L139.917 84.9196C139.296 84.345 138.624 83.868 137.986 83.3393L136.049 81.7819C135.388 81.2819 134.704 80.8279 134.038 80.3509L132.032 78.9372C131.371 78.5235 130.722 78.1039 130.055 77.7074C128.716 76.9316 127.354 76.1903 125.94 75.5294C120.314 72.8571 114.09 71.0814 107.775 69.4608C101.459 67.8402 95.0743 66.3288 88.931 64.5817C77.4298 61.3912 66.2741 57.0656 55.6283 51.6687C46.9277 47.1995 38.5837 42.0678 30.67 36.319L29.239 35.2846L28.5092 34.6582L27.8943 34.1122C27.0821 33.3766 26.3158 32.6353 25.5956 31.8882C24.1736 30.4567 22.8307 28.9488 21.5728 27.3712C19.4006 24.6313 17.5063 21.6821 15.918 18.5672C14.6557 16.1084 13.6079 13.5454 12.786 10.9067C12.182 8.99457 11.7267 7.03867 11.424 5.05643C10.97 1.83823 11.1826 0.108441 11.6711 0.00499891C12.1596 -0.0984434 12.9641 1.40722 14.3089 4.17717C16.1679 8.15794 18.3736 11.9674 20.9004 15.5616C22.6983 18.0858 24.7032 20.4559 26.8944 22.6474C28.137 23.8901 29.4412 25.0697 30.8022 26.1817C31.5109 26.7602 32.2427 27.3348 32.9974 27.9057L33.5721 28.3252L33.8652 28.5321L33.9399 28.5781L33.9744 28.6068L34.0549 28.6528L34.1296 28.693L34.2445 28.7562L34.5721 28.9574L35.2387 29.3481C43.2605 34.1094 51.569 38.3702 60.1166 42.106C70.424 46.5447 81.1077 50.0527 92.04 52.5882C97.9822 53.9674 104.206 55.2202 110.798 56.6627C117.389 58.1051 124.469 59.8406 131.63 62.9841C133.411 63.7542 135.181 64.6507 136.934 65.6162C137.808 66.1046 138.658 66.6276 139.532 67.1448L141.957 68.7597C142.761 69.3343 143.589 69.8401 144.382 70.409L146.727 72.202C147.497 72.8112 148.307 73.3858 149.054 74.0295L151.301 75.9891C163.729 87.0055 173.016 101.117 178.219 116.889C180.973 125.154 182.54 133.768 182.874 142.474V142.549" fill="#ffffff"/>
<path d="M155.226 181.156C151.192 214.073 191.345 257.404 198.724 258.283C206.102 259.163 178.001 217.36 182.058 184.42C186.115 151.479 183.368 124.078 175.961 123.165C168.553 122.251 159.266 148.215 155.226 181.156Z" fill="#ffffff"/>
<path d="M167.869 69.3804C172.311 58.1626 189.919 36.5029 193.097 37.773C196.275 39.043 192.488 69.0011 188.046 80.2131C183.604 91.4251 175.242 93.2583 172.064 91.9997C168.886 90.7412 163.421 80.5981 167.869 69.3804Z" fill="#ffffff"/>
</svg>