<svg width="24" height="22" viewBox="0 0 24 22" fill="none" xmlns="http://www.w3.org/2000/svg">
<path fill-rule="evenodd" clip-rule="evenodd" d="M16.2564 8C16.2564 9.06087 15.8062 10.0783 15.0047 10.8284C14.2033 11.5786 13.1163 12 11.9829 12C10.8495 12 9.76253 11.5786 8.96109 10.8284C8.15965 10.0783 7.70941 9.06087 7.70941 8C7.70941 6.93913 8.15965 5.92172 8.96109 5.17157C9.76253 4.42143 10.8495 4 11.9829 4C13.1163 4 14.2033 4.42143 15.0047 5.17157C15.8062 5.92172 16.2564 6.93913 16.2564 8ZM14.1197 8C14.1197 8.53043 13.8945 9.03914 13.4938 9.41421C13.0931 9.78929 12.5496 10 11.9829 10C11.4162 10 10.8727 9.78929 10.472 9.41421C10.0713 9.03914 9.84616 8.53043 9.84616 8C9.84616 7.46957 10.0713 6.96086 10.472 6.58579C10.8727 6.21071 11.4162 6 11.9829 6C12.5496 6 13.0931 6.21071 13.4938 6.58579C13.8945 6.96086 14.1197 7.46957 14.1197 8Z" fill="white"/>
<path fill-rule="evenodd" clip-rule="evenodd" d="M11.9829 0C5.49256 0 0.230804 4.925 0.230804 11C0.230804 17.075 5.49256 22 11.9829 22C18.4733 22 23.7351 17.075 23.7351 11C23.7351 4.925 18.4733 0 11.9829 0ZM2.36756 11C2.36756 13.09 3.12931 15.014 4.40602 16.542C5.30263 15.4399 6.45933 14.5467 7.78575 13.9323C9.11218 13.3179 10.5724 12.9988 12.0524 13C13.5132 12.9987 14.9551 13.3095 16.2681 13.9088C17.5812 14.508 18.7308 15.3799 19.6293 16.458C20.555 15.3216 21.1783 13.9952 21.4476 12.5886C21.7169 11.182 21.6244 9.73553 21.1779 8.36898C20.7314 7.00243 19.9436 5.75505 18.8798 4.73004C17.816 3.70503 16.5067 2.93186 15.0603 2.47451C13.6138 2.01716 12.0718 1.88877 10.5619 2.09997C9.05187 2.31117 7.61733 2.85589 6.37692 3.68905C5.13652 4.52222 4.1259 5.61987 3.4287 6.8912C2.7315 8.16252 2.36775 9.57097 2.36756 11ZM11.9829 20C9.77562 20.0031 7.63493 19.2923 5.92311 17.988C6.61214 17.0647 7.52924 16.3109 8.59639 15.7907C9.66355 15.2705 10.8492 14.9992 12.0524 15C13.2406 14.9991 14.4119 15.2636 15.469 15.7714C16.5261 16.2793 17.4385 17.0159 18.1304 17.92C16.4053 19.2667 14.2293 20.0029 11.9829 20Z" fill="white"/>
</svg>
