<svg width="59" height="70" viewBox="0 0 59 70" fill="none" xmlns="http://www.w3.org/2000/svg">
<path d="M2.52429 59.4441L5.39696 61.7931L8.51866 63.7992L11.8487 65.4365L15.3437 66.6835L18.958 67.524L22.6446 67.947H26.3554L30.0419 67.524L33.6563 66.6835L37.1513 65.4365L40.4813 63.7992L43.603 61.7931L46.4757 59.4441L49.0618 56.783L51.3278 53.8444L53.244 50.6667L54.7856 47.2913L55.9323 43.7621L56.6692 40.1252L56.9867 36.4281L56.8808 32.7188L56.3527 29.0458L55.4093 25.4569L54.063 21.999L52.3313 18.7171L50.2368 15.6539L47.8068 12.8495L45.0729 10.3404L42.0708 8.15926L38.8397 6.33455L35.4216 4.89006L31.8611 3.84461L28.2047 3.21185L24.5 3L20.7953 3.21185" stroke="#003D84" stroke-width="4" stroke-linecap="round"/>
</svg>
