<svg width="30" height="27" viewBox="0 0 30 27" fill="none" xmlns="http://www.w3.org/2000/svg">
<mask id="path-1-inside-1_769_1044" fill="white">
<path fill-rule="evenodd" clip-rule="evenodd" d="M6.09121 0.261135C4.84719 0.848599 4.198 1.72803 3.91671 3.2061C3.81575 3.73724 3.66424 4.35117 3.58009 4.57024C3.49607 4.78932 3.42721 5.29159 3.42721 5.68616C3.42721 6.2698 3.49101 6.46496 3.76875 6.73173C3.98419 6.9385 4.11029 7.21362 4.11029 7.47671C4.11029 7.74334 4.30729 8.16551 4.65675 8.64725C4.9573 9.06164 5.20225 9.43413 5.20116 9.47517C5.19406 9.72453 4.89719 9.89747 4.12682 10.1011C3.07707 10.3788 1.1262 11.311 0.804884 11.6886C0.643268 11.8785 0.474138 12.6859 0.244488 14.3641C-0.0496445 16.5134 -0.0626229 16.7936 0.121534 17.0151C0.688624 17.6973 1.03016 17.0747 1.30585 14.8569C1.42676 13.8839 1.55504 12.9449 1.59083 12.7701C1.67594 12.3557 2.89209 11.7166 4.51207 11.2353L5.73546 10.8717L6.56936 11.5905C7.02798 11.9859 7.45832 12.3095 7.52567 12.3095C7.59302 12.3095 8.01967 11.9892 8.47378 11.5976L9.29935 10.8859L10.1544 11.1098C11.2493 11.3965 12.7007 11.9762 13.0921 12.283C13.353 12.4876 13.4422 12.8314 13.7157 14.6852C14.0551 16.9855 14.259 17.4838 14.7347 17.1753C14.8648 17.091 14.9903 16.8231 15.0137 16.5799C15.0567 16.1338 14.5578 12.2244 14.4055 11.8131C14.2975 11.5219 12.0482 10.3976 11.0273 10.1246C10.1902 9.90087 9.84813 9.6975 9.84813 9.42365C9.84813 9.33449 10.094 8.95323 10.3946 8.57649C10.7492 8.13197 10.941 7.74999 10.941 7.48874C10.941 7.24787 11.0783 6.94374 11.2826 6.73216C11.5699 6.43453 11.6233 6.24815 11.6193 5.55808C11.6166 5.10704 11.5266 4.57874 11.4192 4.38414C11.3118 4.18955 11.2218 3.86248 11.2191 3.65742C11.2105 2.9866 10.7725 1.84903 10.3054 1.28364C9.62039 0.454739 8.63007 -0.00379744 7.53305 2.36912e-05C6.96309 0.00200502 6.43903 0.0969675 6.09121 0.261135ZM8.96191 1.61622C9.66138 2.16887 9.94799 2.72563 10.05 3.72988C10.0984 4.20653 10.238 4.79852 10.3602 5.04562C10.5798 5.49029 10.5777 5.49935 10.1469 5.91627C9.7749 6.27617 9.71151 6.43609 9.71151 7.01365C9.71151 7.60564 9.65195 7.74632 9.23336 8.14357C8.83963 8.51719 8.75521 8.69721 8.75521 9.16325C8.75521 9.64386 8.67283 9.80619 8.20834 10.241C7.90765 10.5224 7.6004 10.7527 7.52567 10.7527C7.45094 10.7527 7.14369 10.5224 6.843 10.241C6.36704 9.79543 6.29613 9.65051 6.29613 9.12334C6.29613 8.61286 6.22386 8.45181 5.83629 8.09942C5.45185 7.74971 5.36046 7.54889 5.27931 6.87609C5.211 6.30957 5.10444 6.02086 4.91946 5.90127C4.6409 5.72097 4.55579 5.03161 4.79337 4.87947C4.8685 4.83135 4.92998 4.55255 4.92998 4.25988C4.92998 3.43678 5.29392 2.35979 5.71224 1.94498C6.63467 1.03046 8.04057 0.888226 8.96191 1.61622ZM20.7992 9.28199C19.651 9.87469 19.1038 11.1098 18.7996 12.4831C18.7516 12.8509 18.5836 13.1144 18.5836 13.2345C18.4549 13.7762 18.4549 13.754 18.4549 14.2882C18.4549 15.118 18.5048 15.3211 18.7964 15.6803C19.0001 15.931 19.138 16.2779 19.138 16.5397C19.138 16.8429 19.2861 17.1489 19.6161 17.5271C20.3611 18.3814 20.2802 18.609 19.1038 18.9698C17.9457 19.3252 15.9827 20.2639 15.7249 20.5858C15.6264 20.7087 15.3955 21.8924 15.2119 23.2163C14.8523 25.8083 14.878 26.0372 15.5291 26.0372C15.9261 26.0372 16.0289 25.6771 16.351 23.156L16.5835 21.3361L17.6532 20.8003C18.2415 20.5055 19.1865 20.1575 19.753 20.027L20.7834 19.7895L21.4782 20.4367C21.8603 20.7927 22.3084 21.0839 22.4738 21.0839C22.6393 21.0839 23.1023 20.7942 23.5027 20.4401C24.1293 19.8859 24.2899 19.8085 24.6557 19.8839C26.0227 20.1659 28.248 21.135 28.3494 21.4925C28.385 21.618 28.5453 22.6428 28.7054 23.7698C28.8655 24.8966 29.0259 25.8678 29.0618 25.928C29.1797 26.1256 29.8989 26.0439 29.9804 25.8235C30.0491 25.638 29.9419 24.5408 29.5791 21.7208C29.5291 21.3316 29.4028 20.8715 29.2986 20.6984C29.0658 20.3113 27.2029 19.3713 25.8663 18.9662C24.6897 18.6097 24.6162 18.4003 25.354 17.5075C25.6807 17.1121 25.8321 16.7878 25.8321 16.4836C25.8321 16.1917 25.9497 15.924 26.1736 15.706C26.4737 15.4141 26.5152 15.2554 26.5152 14.4027C26.5152 13.8225 26.4392 13.3055 26.3265 13.1183C26.2228 12.9459 26.1019 12.4639 26.0581 12.0474C25.8598 10.165 24.4176 8.91289 22.4479 8.91289C21.7153 8.91289 21.36 8.99243 20.7992 9.28199ZM23.6176 10.3131C23.8963 10.4605 24.2296 10.7016 24.3583 10.8489C24.708 11.2496 25.0124 12.0939 25.0124 12.6633C25.0124 12.9407 25.1046 13.3964 25.2173 13.6757C25.5046 14.388 25.4742 14.6454 25.0807 14.8311C24.777 14.9745 24.7392 15.0781 24.7392 15.7666C24.7392 16.4851 24.7048 16.5679 24.261 16.9186C23.8577 17.2372 23.7829 17.3834 23.7829 17.8518C23.7829 18.3167 23.6804 18.5206 23.1529 19.1049L22.5229 19.8026L21.9278 19.2757C21.3948 18.8038 21.3323 18.6837 21.3283 18.1255C21.3244 17.576 21.2591 17.4448 20.7773 17.0177C20.2904 16.5859 20.2309 16.4639 20.2309 15.8979C20.2309 15.1773 20.0422 14.7154 19.748 14.7154C19.4903 14.7154 19.4922 14.2922 19.7519 13.7762C19.8641 13.5533 19.9577 13.0843 19.9598 12.734C19.9641 12.0345 20.3206 11.0983 20.7242 10.7271C21.5067 10.0076 22.7132 9.83492 23.6176 10.3131Z"/>
</mask>
<path fill-rule="evenodd" clip-rule="evenodd" d="M6.09121 0.261135C4.84719 0.848599 4.198 1.72803 3.91671 3.2061C3.81575 3.73724 3.66424 4.35117 3.58009 4.57024C3.49607 4.78932 3.42721 5.29159 3.42721 5.68616C3.42721 6.2698 3.49101 6.46496 3.76875 6.73173C3.98419 6.9385 4.11029 7.21362 4.11029 7.47671C4.11029 7.74334 4.30729 8.16551 4.65675 8.64725C4.9573 9.06164 5.20225 9.43413 5.20116 9.47517C5.19406 9.72453 4.89719 9.89747 4.12682 10.1011C3.07707 10.3788 1.1262 11.311 0.804884 11.6886C0.643268 11.8785 0.474138 12.6859 0.244488 14.3641C-0.0496445 16.5134 -0.0626229 16.7936 0.121534 17.0151C0.688624 17.6973 1.03016 17.0747 1.30585 14.8569C1.42676 13.8839 1.55504 12.9449 1.59083 12.7701C1.67594 12.3557 2.89209 11.7166 4.51207 11.2353L5.73546 10.8717L6.56936 11.5905C7.02798 11.9859 7.45832 12.3095 7.52567 12.3095C7.59302 12.3095 8.01967 11.9892 8.47378 11.5976L9.29935 10.8859L10.1544 11.1098C11.2493 11.3965 12.7007 11.9762 13.0921 12.283C13.353 12.4876 13.4422 12.8314 13.7157 14.6852C14.0551 16.9855 14.259 17.4838 14.7347 17.1753C14.8648 17.091 14.9903 16.8231 15.0137 16.5799C15.0567 16.1338 14.5578 12.2244 14.4055 11.8131C14.2975 11.5219 12.0482 10.3976 11.0273 10.1246C10.1902 9.90087 9.84813 9.6975 9.84813 9.42365C9.84813 9.33449 10.094 8.95323 10.3946 8.57649C10.7492 8.13197 10.941 7.74999 10.941 7.48874C10.941 7.24787 11.0783 6.94374 11.2826 6.73216C11.5699 6.43453 11.6233 6.24815 11.6193 5.55808C11.6166 5.10704 11.5266 4.57874 11.4192 4.38414C11.3118 4.18955 11.2218 3.86248 11.2191 3.65742C11.2105 2.9866 10.7725 1.84903 10.3054 1.28364C9.62039 0.454739 8.63007 -0.00379744 7.53305 2.36912e-05C6.96309 0.00200502 6.43903 0.0969675 6.09121 0.261135ZM8.96191 1.61622C9.66138 2.16887 9.94799 2.72563 10.05 3.72988C10.0984 4.20653 10.238 4.79852 10.3602 5.04562C10.5798 5.49029 10.5777 5.49935 10.1469 5.91627C9.7749 6.27617 9.71151 6.43609 9.71151 7.01365C9.71151 7.60564 9.65195 7.74632 9.23336 8.14357C8.83963 8.51719 8.75521 8.69721 8.75521 9.16325C8.75521 9.64386 8.67283 9.80619 8.20834 10.241C7.90765 10.5224 7.6004 10.7527 7.52567 10.7527C7.45094 10.7527 7.14369 10.5224 6.843 10.241C6.36704 9.79543 6.29613 9.65051 6.29613 9.12334C6.29613 8.61286 6.22386 8.45181 5.83629 8.09942C5.45185 7.74971 5.36046 7.54889 5.27931 6.87609C5.211 6.30957 5.10444 6.02086 4.91946 5.90127C4.6409 5.72097 4.55579 5.03161 4.79337 4.87947C4.8685 4.83135 4.92998 4.55255 4.92998 4.25988C4.92998 3.43678 5.29392 2.35979 5.71224 1.94498C6.63467 1.03046 8.04057 0.888226 8.96191 1.61622ZM20.7992 9.28199C19.651 9.87469 19.1038 11.1098 18.7996 12.4831C18.7516 12.8509 18.5836 13.1144 18.5836 13.2345C18.4549 13.7762 18.4549 13.754 18.4549 14.2882C18.4549 15.118 18.5048 15.3211 18.7964 15.6803C19.0001 15.931 19.138 16.2779 19.138 16.5397C19.138 16.8429 19.2861 17.1489 19.6161 17.5271C20.3611 18.3814 20.2802 18.609 19.1038 18.9698C17.9457 19.3252 15.9827 20.2639 15.7249 20.5858C15.6264 20.7087 15.3955 21.8924 15.2119 23.2163C14.8523 25.8083 14.878 26.0372 15.5291 26.0372C15.9261 26.0372 16.0289 25.6771 16.351 23.156L16.5835 21.3361L17.6532 20.8003C18.2415 20.5055 19.1865 20.1575 19.753 20.027L20.7834 19.7895L21.4782 20.4367C21.8603 20.7927 22.3084 21.0839 22.4738 21.0839C22.6393 21.0839 23.1023 20.7942 23.5027 20.4401C24.1293 19.8859 24.2899 19.8085 24.6557 19.8839C26.0227 20.1659 28.248 21.135 28.3494 21.4925C28.385 21.618 28.5453 22.6428 28.7054 23.7698C28.8655 24.8966 29.0259 25.8678 29.0618 25.928C29.1797 26.1256 29.8989 26.0439 29.9804 25.8235C30.0491 25.638 29.9419 24.5408 29.5791 21.7208C29.5291 21.3316 29.4028 20.8715 29.2986 20.6984C29.0658 20.3113 27.2029 19.3713 25.8663 18.9662C24.6897 18.6097 24.6162 18.4003 25.354 17.5075C25.6807 17.1121 25.8321 16.7878 25.8321 16.4836C25.8321 16.1917 25.9497 15.924 26.1736 15.706C26.4737 15.4141 26.5152 15.2554 26.5152 14.4027C26.5152 13.8225 26.4392 13.3055 26.3265 13.1183C26.2228 12.9459 26.1019 12.4639 26.0581 12.0474C25.8598 10.165 24.4176 8.91289 22.4479 8.91289C21.7153 8.91289 21.36 8.99243 20.7992 9.28199ZM23.6176 10.3131C23.8963 10.4605 24.2296 10.7016 24.3583 10.8489C24.708 11.2496 25.0124 12.0939 25.0124 12.6633C25.0124 12.9407 25.1046 13.3964 25.2173 13.6757C25.5046 14.388 25.4742 14.6454 25.0807 14.8311C24.777 14.9745 24.7392 15.0781 24.7392 15.7666C24.7392 16.4851 24.7048 16.5679 24.261 16.9186C23.8577 17.2372 23.7829 17.3834 23.7829 17.8518C23.7829 18.3167 23.6804 18.5206 23.1529 19.1049L22.5229 19.8026L21.9278 19.2757C21.3948 18.8038 21.3323 18.6837 21.3283 18.1255C21.3244 17.576 21.2591 17.4448 20.7773 17.0177C20.2904 16.5859 20.2309 16.4639 20.2309 15.8979C20.2309 15.1773 20.0422 14.7154 19.748 14.7154C19.4903 14.7154 19.4922 14.2922 19.7519 13.7762C19.8641 13.5533 19.9577 13.0843 19.9598 12.734C19.9641 12.0345 20.3206 11.0983 20.7242 10.7271C21.5067 10.0076 22.7132 9.83492 23.6176 10.3131Z" fill="#003D84" stroke="black" stroke-width="2" mask="url(#path-1-inside-1_769_1044)"/>
</svg>
