<svg width="31" height="31" viewBox="0 0 31 31" fill="none" xmlns="http://www.w3.org/2000/svg">
<path d="M7.48045 28.0433L8.04482 28.3255C10.346 29.6942 12.9769 30.4097 15.6544 30.3948C23.897 30.376 30.6694 23.5876 30.6694 15.3449C30.6694 11.3615 29.0873 7.53596 26.2739 4.71598C23.4643 1.86686 19.6257 0.26123 15.6252 0.26123C7.42025 0.26123 0.669434 7.01299 0.669434 15.217C0.669434 15.2819 0.669434 15.3459 0.670377 15.4108C0.695089 18.2001 1.47523 20.9306 2.92787 23.312L3.3041 23.8763L1.79912 29.426L7.48045 28.0433V28.0433Z" fill="#00E676"/>
<path d="M24.1396 19.2747L23.1049 18.8045C23.1049 18.8045 21.5999 18.146 20.6593 17.6757C20.5652 17.6757 20.4712 17.5817 20.3771 17.5817C20.1452 17.5874 19.9186 17.6521 19.7186 17.7698C19.5183 17.8873 19.6246 17.8638 18.3077 19.3688C18.2184 19.5447 18.035 19.6548 17.8374 19.651H17.7433C17.6019 19.6273 17.4709 19.5618 17.3671 19.4629L16.8968 19.2747C15.8877 18.8475 14.9637 18.2422 14.169 17.4876C13.9809 17.2995 13.6987 17.1113 13.5106 16.9232C12.8142 16.2561 12.2129 15.4965 11.7234 14.6657L11.6293 14.4776C11.5476 14.3626 11.4842 14.2357 11.4412 14.1014C11.4166 13.9384 11.4499 13.772 11.5353 13.6311C11.6209 13.49 11.9115 13.1607 12.1937 12.8786C12.4759 12.5964 12.4759 12.4083 12.664 12.2201C12.7607 12.0859 12.8275 11.9324 12.86 11.7702C12.8924 11.6079 12.8897 11.4406 12.8521 11.2795C12.4138 10.0624 11.9114 8.86928 11.3472 7.70518C11.1959 7.46996 10.9603 7.30165 10.6887 7.23486H9.65405C9.46593 7.23486 9.27782 7.32892 9.08967 7.32892L8.99562 7.42298C8.8075 7.51703 8.61939 7.70518 8.43124 7.79924C8.24313 7.89329 8.14907 8.17549 7.96096 8.36361C7.30339 9.19457 6.93955 10.2199 6.92627 11.2795C6.93669 12.0248 7.09661 12.7605 7.39656 13.4429L7.49064 13.7251C8.33523 15.5309 9.51643 17.159 10.9709 18.5223L11.3472 18.8985C11.621 19.1253 11.8729 19.3772 12.0997 19.651C14.0486 21.3469 16.3635 22.5697 18.8627 23.2254C19.1449 23.3194 19.5211 23.3194 19.8033 23.4135H20.7439C21.2355 23.3892 21.7164 23.261 22.1548 23.0372C22.3853 22.9328 22.6054 22.8068 22.8133 22.661L23.0014 22.4728C23.1895 22.2847 23.3776 22.1907 23.5658 22.0026C23.7496 21.8387 23.9081 21.6486 24.0361 21.4382C24.2167 21.0168 24.3436 20.5747 24.4123 20.1213V19.4629C24.3278 19.3869 24.2328 19.3236 24.1301 19.2747" fill="white"/>
</svg>
